<svg xmlns="http://www.w3.org/2000/svg" viewBox="0 0 464.81177 474.95666"><path d="M483.40588,326.27378V307.61533C432.80219,273.56443,349.80713,251.35972,256,251.35972S79.19781,273.56443,28.59412,307.61533v18.65845C86.28656,313.563,166.84607,305.66715,256,305.66715S425.71344,313.563,483.40588,326.27378Z" transform="translate(-23.59412 -28)" style="fill:none;stroke:#45acd2;stroke-miterlimit:10;stroke-width:10px"/><line x1="189.15588" y1="192.60272" x2="189.15588" style="fill:none;stroke:#45acd2;stroke-miterlimit:10;stroke-width:10px"/><polygon points="220.962 133.491 211.558 130.073 189.156 191.626 166.754 130.073 157.359 133.491 189.156 220.86 220.962 133.491" style="fill:#45acd2"/><line x1="102.65588" y1="205.743" x2="102.65588" style="stroke:#45acd2;stroke-miterlimit:10;stroke-width:10px"/><polygon points="134.462 146.631 125.058 143.214 102.656 204.766 80.254 143.214 70.859 146.631 102.656 234 134.462 146.631" style="fill:#45acd2"/><line x1="275.65588" y1="192.60272" x2="275.65588" style="stroke:#45acd2;stroke-miterlimit:10;stroke-width:10px"/><polygon points="307.462 133.491 298.058 130.073 275.656 191.626 253.254 130.073 243.859 133.491 275.656 220.86 307.462 133.491" style="fill:#45acd2"/><line x1="362.15588" y1="205.743" x2="362.15588" style="stroke:#45acd2;stroke-miterlimit:10;stroke-width:10px"/><polygon points="393.962 146.631 384.558 143.214 362.156 204.766 339.754 143.214 330.359 146.631 362.156 234 393.962 146.631" style="fill:#45acd2"/><line x1="124.7659" y1="281.68923" x2="232.40588" y2="472.5" style="stroke:#45acd2;stroke-miterlimit:10;stroke-width:10px"/><line x1="340.04586" y1="281.68923" x2="232.40588" y2="472.5" style="stroke:#45acd2;stroke-miterlimit:10;stroke-width:10px"/><line x1="269.39026" y1="278.12645" x2="232.40588" y2="472.5" style="stroke:#45acd2;stroke-miterlimit:10;stroke-width:10px"/><line x1="195.42151" y1="278.12645" x2="232.40588" y2="472.5" style="stroke:#45acd2;stroke-miterlimit:10;stroke-width:10px"/></svg>