<?xml version="1.0" encoding="UTF-8"?>
<svg version="1.1" xmlns="http://www.w3.org/2000/svg" width="60" height="60">
<path d="M0 0 C19.8 0 39.6 0 60 0 C60 19.8 60 39.6 60 60 C40.2 60 20.4 60 0 60 C0 40.2 0 20.4 0 0 Z " fill="#011E28" transform="translate(0,0)"/>
<path d="M0 0 C3.96858865 -1.02049422 7.02848061 -1.06854967 11 0 C13.8773252 1.94737723 16.2999879 4.2325044 18.75 6.6875 C19.38244629 7.31221191 20.01489258 7.93692383 20.66650391 8.58056641 C24.90789219 13.09566876 24.90789219 13.09566876 25.2578125 16.53125 C23.40528932 20.16725824 20.97718469 22.91501043 18.125 25.8125 C17.5472583 26.4005542 16.9695166 26.9886084 16.37426758 27.59448242 C12.6203145 31.14299273 10.06285611 32.86842048 4.6875 32.8125 C1.94921875 32.45703125 1.94921875 32.45703125 0 32 C1.98713353 27.02642301 6.09383078 24.05215593 9.98046875 20.53515625 C12.24502696 18.21134009 12.24502696 18.21134009 12.078125 15.48046875 C10.72714044 12.3722253 9.01159515 10.58545714 6.5625 8.25 C5.75941406 7.47140625 4.95632812 6.6928125 4.12890625 5.890625 C2.14578381 3.964753 2.14578381 3.964753 0 3 C0 2.01 0 1.02 0 0 Z " fill="#07ECF9" transform="translate(20,14)"/>
<path d="M0 0 C3.63 0 7.26 0 11 0 C10.01 1.485 10.01 1.485 9 3 C8.30686092 4.65583225 7.63525576 6.32110979 7 8 C5.82512964 7.24172908 4.66027408 6.46792245 3.5 5.6875 C2.52546875 5.04361328 2.52546875 5.04361328 1.53125 4.38671875 C1.0259375 3.92910156 0.520625 3.47148437 0 3 C0 2.01 0 1.02 0 0 Z " fill="#0DE6F3" transform="translate(20,14)"/>
<path d="M0 0 C5.11790246 1.30574051 7.7614885 3.31616356 11.375 7.125 C12.24898437 8.03507812 13.12296875 8.94515625 14.0234375 9.8828125 C14.67570312 10.58148438 15.32796875 11.28015625 16 12 C15.34 12.66 14.68 13.32 14 14 C13.319375 13.29875 12.63875 12.5975 11.9375 11.875 C9.28718744 9.20954279 6.45532536 6.81257291 3.55078125 4.4296875 C2 3 2 3 0 0 Z " fill="#062B32" transform="translate(17,16)"/>
<path d="M0 0 C2 2 2 2 2 5 C3.32 5.66 4.64 6.32 6 7 C6 7.66 6 8.32 6 9 C5.01 9.33 4.02 9.66 3 10 C1.02 7.69 -0.96 5.38 -3 3 C-2.01 2.67 -1.02 2.34 0 2 C0 1.34 0 0.68 0 0 Z " fill="#062831" transform="translate(34,11)"/>
<path d="M0 0 C2.475 0.99 2.475 0.99 5 2 C3.60667426 5.36720387 2.0210714 6.9859524 -1 9 C-1 7.68 -1 6.36 -1 5 C-0.34 5 0.32 5 1 5 C0.67 3.35 0.34 1.7 0 0 Z " fill="#042A32" transform="translate(26,30)"/>
<path d="M0 0 C2.50037734 2.17424117 3.43628586 3.73045798 4 7 C1 7 1 7 -0.6875 5.625 C-2 4 -2 4 -2 2 C-1.34 2 -0.68 2 0 2 C0 1.34 0 0.68 0 0 Z " fill="#052630" transform="translate(41,19)"/>
</svg>
