<?xml version="1.0" encoding="UTF-8"?>
<!DOCTYPE svg PUBLIC "-//W3C//DTD SVG 1.1//EN" "http://www.w3.org/Graphics/SVG/1.1/DTD/svg11.dtd">
<svg xmlns="http://www.w3.org/2000/svg" version="1.1" width="512px" height="512px" style="shape-rendering:geometricPrecision; text-rendering:geometricPrecision; image-rendering:optimizeQuality; fill-rule:evenodd; clip-rule:evenodd" xmlns:xlink="http://www.w3.org/1999/xlink">
<g><path fill="#001f29" stroke="#001f29" stroke-width="0.5" d="M 113.02,0 C 210.01,0 307,0 403.98,0 C 404.05,0.35 404.26,0.56 404.61,0.64 C 435.1,4.27 460.72,17.39 481.49,40.02 C 498.26,59.15 508.21,81.33 511.33,106.57 C 511.38,108.49 511.38,110.4 511.34,112.32 C 511.44,112.67 511.66,112.9 512,113.02 C 512,210.01 512,306.99 512,403.98 C 511.67,404.06 511.47,404.26 511.39,404.59 C 509.28,423.81 502.95,441.52 492.4,457.73 C 474.76,483.9 450.65,500.91 420.08,508.74 C 415.23,509.74 410.36,510.62 405.47,511.38 C 403.52,511.32 401.57,511.33 399.62,511.41 C 399.32,511.51 399.1,511.71 398.98,512 C 301.99,512 205.01,512 108.02,512 C 107.94,511.67 107.73,511.46 107.41,511.37 C 84.87,508.85 64.59,500.7 46.57,486.91 C 20.58,466.17 5.33,439.34 0.82,406.41 C 0.72,404.16 0.67,401.91 0.64,399.65 C 0.54,399.32 0.33,399.09 0,398.98 C 0,301.99 0,205.01 0,108.03 C 0.28,107.88 0.48,107.66 0.59,107.36 C 4.87,72.86 20.79,44.99 48.34,23.76 C 65.68,10.82 85.1,3.14 106.6,0.73 C 108.53,0.66 110.45,0.6 112.38,0.57 C 112.69,0.48 112.9,0.29 113.02,0 Z M 137.93,89 C 138.11,93.22 139.63,96.89 142.5,100 C 190.48,147.98 238.46,195.97 286.44,243.96 C 290.38,248.29 291.86,253.35 290.88,259.12 C 289.94,262.6 288.23,265.63 285.74,268.24 C 237.83,315.97 190,363.78 142.25,411.67 C 138.47,415.94 137.17,420.86 138.35,426.43 C 139.98,432.07 143.7,435.27 149.5,436.06 C 181.16,436.07 212.83,436.08 244.5,436.07 C 252.77,435.9 260.04,433.08 266.29,427.63 C 268.09,426.16 269.82,424.61 271.49,422.99 C 314.33,380.17 357.17,337.34 400,294.5 C 407.18,287.56 412.68,279.48 416.5,270.26 C 418.99,263.89 419.81,257.3 418.97,250.5 C 417.2,240.81 413.16,232.17 406.86,224.58 C 405.34,222.79 403.81,221.02 402.25,219.26 C 358.09,175.08 313.92,130.91 269.75,86.74 C 266.84,83.96 263.67,81.55 260.21,79.5 C 255.64,76.93 250.74,75.49 245.5,75.18 C 213.51,75.13 181.52,75.16 149.53,75.25 C 143.79,76.01 140.09,79.16 138.41,84.7 C 138.05,86.11 137.89,87.54 137.93,89 Z"/></g>
<g><path fill="#00f0ff" stroke="#00f0ff" stroke-width="0.5" d="M 137.93,89 C 137.91,85.24 139.1,81.91 141.51,79.01 C 143.73,76.81 146.41,75.55 149.53,75.25 C 181.52,75.16 213.51,75.13 245.5,75.18 C 252.74,75.61 259.2,78.08 264.88,82.61 C 266.51,83.98 268.13,85.35 269.75,86.74 C 313.92,130.91 358.09,175.08 402.25,219.26 C 408.56,225.8 413.39,233.27 416.75,241.7 C 419.27,248.77 419.85,256.01 418.51,263.42 C 416.19,272.72 411.89,281.01 405.63,288.29 C 403.85,290.45 401.97,292.52 400,294.5 C 357.17,337.34 314.33,380.17 271.49,422.99 C 266.41,428.39 260.39,432.32 253.43,434.78 C 250.53,435.75 247.55,436.18 244.5,436.07 C 212.83,436.08 181.16,436.07 149.5,436.06 C 143.7,435.27 139.98,432.07 138.35,426.43 C 137.17,420.86 138.47,415.94 142.25,411.67 C 190,363.78 237.83,315.97 285.74,268.24 C 290.22,263.64 291.9,258.2 290.79,251.91 C 289.97,248.91 288.52,246.26 286.44,243.96 C 238.46,195.97 190.48,147.98 142.5,100 C 139.63,96.89 138.11,93.22 137.93,89 Z"/></g>
</svg>
