<svg width="240" height="240" viewBox="0 0 240 240" fill="none" xmlns="http://www.w3.org/2000/svg">
<rect width="240" height="240" fill="#185EF1"/>
<mask id="mask0_14_1582" style="mask-type:luminance" maskUnits="userSpaceOnUse" x="23" y="23" width="193" height="193">
<path d="M23.9729 23.9434H215.833V215.943H23.9729V23.9434Z" fill="white"/>
</mask>
<g mask="url(#mask0_14_1582)">
<path fill-rule="evenodd" clip-rule="evenodd" d="M120.058 151.87C102.398 151.87 88.085 137.558 88.1028 119.911C88.1206 102.143 102.42 87.9379 120.203 88.0169C134.264 88.0795 146.18 97.2159 150.388 109.867C151.123 112.079 153.19 113.573 155.522 113.573H183.668C184.396 113.573 184.987 112.983 184.987 112.255V104.999C184.987 104.676 185.25 104.413 185.573 104.413H192.431C192.754 104.413 193.017 104.676 193.017 104.999V112.255C193.017 112.983 193.608 113.573 194.336 113.573H198.347C199.075 113.573 199.666 112.983 199.666 112.255V104.999C199.666 104.676 199.928 104.413 200.252 104.413H207.109C207.433 104.413 207.696 104.676 207.696 104.999V112.255C207.696 112.983 208.286 113.573 209.015 113.573H214.513C215.283 113.573 215.891 112.916 215.829 112.148C211.86 62.7943 170.53 23.9742 120.118 23.9434C67.0702 23.9111 23.9729 66.9442 23.9729 119.945C23.9729 172.963 66.992 215.943 120.058 215.943C170.497 215.943 211.857 177.113 215.829 127.74C215.891 126.972 215.284 126.314 214.513 126.314H155.523C153.178 126.314 151.119 127.831 150.376 130.054C146.144 142.731 134.169 151.87 120.058 151.87Z" fill="white"/>
</g>
</svg>
