<?xml version="1.0" encoding="UTF-8"?>
<svg version="1.1" xmlns="http://www.w3.org/2000/svg" width="60" height="60">
<path d="M0 0 C6.45919837 4.13502766 11.28426116 10.51313959 13 18 C13.07522969 20.33212027 13.09325876 22.6685311 13 25 C12.01 25 11.02 25 10 25 C10 24.01 10 23.02 10 22 C9.34 22 8.68 22 8 22 C8 22.99 8 23.98 8 25 C7.360625 24.814375 6.72125 24.62875 6.0625 24.4375 C5.0415625 24.2209375 5.0415625 24.2209375 4 24 C3.505 24.495 3.505 24.495 3 25 C1.0390625 25.203125 1.0390625 25.203125 -1.375 25.25 C-2.16648438 25.27578125 -2.95796875 25.3015625 -3.7734375 25.328125 C-7.36384076 24.79901294 -8.55973227 22.57071743 -10.6875 19.8125 C-13.61022113 17.52171858 -15.45655751 17.40785418 -19.09375 17.625 C-21.19912072 17.92719931 -21.19912072 17.92719931 -23.5 19.5 C-25.62153384 23.03588973 -25.791013 25.97901723 -25 30 C-23.66666667 32.66666667 -23.66666667 32.66666667 -21 34 C-18.21865542 34.54714975 -15.77815652 34.57854393 -13 34 C-10.62419982 32.29118236 -10.62419982 32.29118236 -9 30 C-7.33455931 27.96943051 -6.54447675 27.08895012 -3.9152832 26.65942383 C-3.13499756 26.67513428 -2.35471191 26.69084473 -1.55078125 26.70703125 C-0.70322266 26.71669922 0.14433594 26.72636719 1.01757812 26.73632812 C2.33918945 26.7740332 2.33918945 26.7740332 3.6875 26.8125 C4.58017578 26.82603516 5.47285156 26.83957031 6.39257812 26.85351562 C8.59566166 26.88885921 10.79752582 26.93819507 13 27 C13.2634096 35.02911477 11.07639152 41.50183594 5.62109375 47.5859375 C-2.51759012 54.68522319 -9.85121238 56.3618408 -20.37890625 56.28515625 C-27.42159991 55.73055362 -34.02623746 53.11192261 -39 48 C-46.0984869 38.69546705 -48.05603716 30.70655823 -47 19 C-44.65439883 9.84731913 -40.14548456 4.50907888 -32.4140625 -0.66796875 C-22.3168555 -6.23940498 -9.92803405 -5.61548691 0 0 Z " fill="#3E76F1" transform="translate(47,4)"/>
</svg>
