<?xml version="1.0" encoding="UTF-8"?>
<svg version="1.1" xmlns="http://www.w3.org/2000/svg" width="240" height="240">
<path d="M0 0 C79.2 0 158.4 0 240 0 C240 79.2 240 158.4 240 240 C160.8 240 81.6 240 0 240 C0 160.8 0 81.6 0 0 Z " fill="#000000" transform="translate(0,0)"/>
<path d="M0 0 C0.77419785 0.00142502 1.54839569 0.00285004 2.34605408 0.00431824 C3.66235558 -0.00029671 3.66235558 -0.00029671 5.00524902 -0.00500488 C6.42872902 0.00577339 6.42872902 0.00577339 7.88096619 0.01676941 C8.85239059 0.01722763 9.823815 0.01768585 10.82467651 0.01815796 C12.87999186 0.02118192 14.93530489 0.0290725 16.99058533 0.04142761 C20.14878899 0.05968312 23.30669966 0.06193735 26.46495056 0.06169128 C28.45779166 0.06660634 30.45063075 0.07243461 32.44346619 0.07926941 C33.86998253 0.08093864 33.86998253 0.08093864 35.32531738 0.0826416 C36.19969955 0.08902145 37.07408173 0.09540131 37.97496033 0.10197449 C39.13506371 0.10769218 39.13506371 0.10769218 40.31860352 0.11352539 C42.09580994 0.24723816 42.09580994 0.24723816 43.09580994 1.24723816 C43.18338997 3.24688798 43.2027757 5.24959926 43.19346619 7.25114441 C43.19024353 8.46608582 43.18702087 9.68102722 43.18370056 10.93278503 C43.1711322 12.85187683 43.1711322 12.85187683 43.15830994 14.80973816 C43.15379822 16.09299988 43.1492865 17.3762616 43.14463806 18.69841003 C43.13280539 21.88139838 43.11632062 25.06429578 43.09580994 28.24723816 C47.05580994 27.75223816 47.05580994 27.75223816 51.09580994 27.24723816 C51.13339417 26.0736676 51.13339417 26.0736676 51.17173767 24.87638855 C51.28730782 21.35398867 51.41020943 17.83188256 51.53330994 14.30973816 C51.57262634 13.07803894 51.61194275 11.84633972 51.65245056 10.57731628 C51.69434509 9.40749207 51.73623962 8.23766785 51.77940369 7.03239441 C51.8160614 5.94837341 51.85271912 4.86435242 51.89048767 3.7474823 C52.09580994 1.24723816 52.09580994 1.24723816 53.09580994 0.24723816 C54.47190876 0.14928505 55.85294876 0.11925728 57.23252869 0.11784363 C58.11013855 0.11469147 58.98774841 0.11153931 59.89195251 0.10829163 C60.84610046 0.11031586 61.80024841 0.11234009 62.78330994 0.11442566 C63.75614929 0.11346893 64.72898865 0.11251221 65.73130798 0.11152649 C67.79258794 0.11084458 69.85387002 0.11269963 71.91514587 0.11686707 C75.08218682 0.12221515 78.24908594 0.11692244 81.41612244 0.11051941 C83.41351858 0.11118019 85.41091464 0.11246135 87.40830994 0.11442566 C88.36245789 0.11240143 89.31660583 0.1103772 90.29966736 0.10829163 C91.61608215 0.11301987 91.61608215 0.11301987 92.95909119 0.11784363 C93.73550964 0.11863922 94.5119281 0.11943481 95.31187439 0.12025452 C97.09580994 0.24723816 97.09580994 0.24723816 98.09580994 1.24723816 C98.25387524 3.17202629 98.34694494 5.10223026 98.41221619 7.03239441 C98.45411072 8.20221863 98.49600525 9.37204285 98.53916931 10.57731628 C98.57848572 11.8090155 98.61780212 13.04071472 98.65830994 14.30973816 C98.70149353 15.54530457 98.74467712 16.78087097 98.78916931 18.05387878 C98.89565192 21.11821151 98.99766418 24.18262889 99.09580994 27.24723816 C101.73580994 27.57723816 104.37580994 27.90723816 107.09580994 28.24723816 C107.09057312 27.43456482 107.0853363 26.62189148 107.0799408 25.78459167 C107.05924 22.12631494 107.04617191 18.46805049 107.03330994 14.80973816 C107.02493103 13.53034363 107.01655212 12.2509491 107.00791931 10.93278503 C107.00469666 9.71784363 107.001474 8.50290222 106.99815369 7.25114441 C106.99291687 6.12522888 106.98768005 4.99931335 106.98228455 3.83927917 C107.09580994 1.24723816 107.09580994 1.24723816 108.09580994 0.24723816 C109.46640586 0.14411779 110.84220652 0.10874863 112.21665955 0.10197449 C113.5282328 0.09240471 113.5282328 0.09240471 114.86630249 0.0826416 C115.81731339 0.08152878 116.76832428 0.08041595 117.74815369 0.07926941 C119.20385521 0.07427681 119.20385521 0.07427681 120.68896484 0.06918335 C122.74604314 0.06410986 124.80312969 0.06177515 126.86021423 0.06193542 C130.01635738 0.0597499 133.17215064 0.04160124 136.32823181 0.02262878 C138.32237123 0.01969483 140.31651233 0.01771005 142.31065369 0.01676941 C143.25964035 0.00958389 144.20862701 0.00239838 145.18637085 -0.00500488 C146.06390518 -0.00192825 146.94143951 0.00114838 147.8455658 0.00431824 C148.61976364 0.00289322 149.39396149 0.0014682 150.19161987 0 C152.09580994 0.24723816 152.09580994 0.24723816 154.09580994 2.24723816 C154.29537964 4.80474269 154.3756782 7.25161957 154.36143494 9.80973816 C154.36334839 10.55683044 154.36526184 11.30392273 154.36723328 12.07365417 C154.36859491 13.65397986 154.36489993 15.23431674 154.35655212 16.81462097 C154.34585194 19.23772738 154.35644773 21.66009239 154.36924744 24.08317566 C154.36792584 25.61703147 154.36536344 27.15088681 154.36143494 28.68473816 C154.3654834 29.41184998 154.36953186 30.13896179 154.373703 30.8881073 C154.32573354 36.01731455 154.32573354 36.01731455 152.09580994 38.24723816 C149.45022583 38.49892044 149.45022583 38.49892044 146.02232361 38.50120544 C144.07886551 38.50966492 144.07886551 38.50966492 142.09614563 38.51829529 C140.65202276 38.51440631 139.20790044 38.51030995 137.76377869 38.50602722 C136.24950492 38.50873598 134.73523247 38.51229626 133.22096252 38.51664734 C129.10121066 38.5257874 124.98155864 38.52222046 120.86180496 38.51588917 C116.55723545 38.51083751 112.25267469 38.51551829 107.94810486 38.5186615 C100.71835286 38.52230359 93.48864168 38.5174957 86.25889587 38.50798035 C77.89167224 38.49709532 69.52454606 38.50062073 61.15732479 38.51163316 C53.9827818 38.52069914 46.80826821 38.5219947 39.63372135 38.51675582 C35.34456852 38.51363231 31.05546155 38.51323717 26.76631165 38.5198288 C22.73458146 38.52559164 18.70297735 38.52162496 14.67126083 38.51004028 C13.18854863 38.50738799 11.70582588 38.50816845 10.22311783 38.51256561 C8.20518107 38.51799985 6.18722122 38.50998906 4.16929626 38.50120544 C2.47248466 38.50007437 2.47248466 38.50007437 0.74139404 38.49892044 C-1.90419006 38.24723816 -1.90419006 38.24723816 -3.90419006 36.24723816 C-4.10375976 33.68973363 -4.18405833 31.24285675 -4.16981506 28.68473816 C-4.17172852 27.93764587 -4.17364197 27.19055359 -4.1756134 26.42082214 C-4.17697504 24.84049645 -4.17328006 23.26015957 -4.16493225 21.67985535 C-4.15423206 19.25674894 -4.16482786 16.83438393 -4.17762756 14.41130066 C-4.17630596 12.87744485 -4.17374356 11.34358951 -4.16981506 9.80973816 C-4.17386353 9.08262634 -4.17791199 8.35551453 -4.18208313 7.60636902 C-4.11594464 0.53441019 -4.11594464 0.53441019 0 0 Z " fill="#5ACDF6" transform="translate(44.90419006347656,51.75276184082031)"/>
<path d="M0 0 C0.93469809 0.00184359 1.86939617 0.00368717 2.83241844 0.00558662 C4.43943878 0.00146263 4.43943878 0.00146263 6.07892418 -0.00274467 C7.25927742 0.00444588 8.43963066 0.01163643 9.65575218 0.01904488 C11.51424545 0.0186068 11.51424545 0.0186068 13.41028404 0.01815987 C16.81304422 0.01931662 20.21556339 0.02936495 23.61828089 0.04330778 C27.17237994 0.05578828 30.72648201 0.05698352 34.28059959 0.0593586 C41.01313947 0.06558127 47.7456146 0.08200269 54.47812593 0.10205758 C62.14186261 0.12439213 69.80560234 0.13540384 77.46936345 0.14544845 C93.23644593 0.16636828 109.00346376 0.20155949 124.77049828 0.24609566 C125.87974181 4.84952435 125.41912506 6.84510958 123.31346703 11.13281441 C122.77786156 12.23560738 122.24225609 13.33840034 121.69042015 14.47461128 C121.11872093 15.61607613 120.54702171 16.75754097 119.95799828 17.93359566 C119.39790062 19.08666206 118.83780296 20.23972847 118.26073265 21.42773628 C114.08718354 29.92941039 114.08718354 29.92941039 111.77049828 32.24609566 C109.74960899 32.49777794 109.74960899 32.49777794 107.21556664 32.50006294 C105.77695778 32.50852242 105.77695778 32.50852242 104.30928612 32.51715279 C102.72580879 32.51108009 102.72580879 32.51108009 101.11034203 32.50488472 C100.00135551 32.50838936 98.892369 32.511894 97.74977684 32.51550484 C94.06912107 32.52433661 90.38865614 32.51846783 86.70799828 32.51172066 C84.15973943 32.51306689 81.61148084 32.51500707 79.06322289 32.517519 C73.71659735 32.52047223 68.37004077 32.51635583 63.02342796 32.50683784 C56.83745557 32.49595298 50.65161499 32.49947846 44.46564579 32.51049066 C38.52079416 32.52065102 32.57598358 32.51958729 26.6311245 32.51372719 C24.0984705 32.5123892 21.56581316 32.51404359 19.03316307 32.51868629 C15.49890176 32.52374264 11.96489666 32.51605369 8.43065453 32.50488472 C6.8471772 32.51095741 6.8471772 32.51095741 5.23171043 32.51715279 C4.27263786 32.51151314 3.31356529 32.50587349 2.32542992 32.50006294 C1.48919594 32.49930889 0.65296196 32.49855484 -0.20861244 32.49777794 C-2.22950172 32.24609566 -2.22950172 32.24609566 -4.22950172 30.24609566 C-4.48829079 27.48047066 -4.48829079 27.48047066 -4.49512672 23.99609566 C-4.49770485 22.74828316 -4.50028297 21.50047066 -4.50293922 20.21484566 C-4.49520485 18.90515816 -4.48747047 17.59547066 -4.47950172 16.24609566 C-4.4872361 14.93640816 -4.49497047 13.62672066 -4.50293922 12.27734566 C-4.5003611 11.02953316 -4.49778297 9.78172066 -4.49512672 8.49609566 C-4.49287086 7.34625191 -4.49061501 6.19640816 -4.48829079 5.01172066 C-4.16686406 1.57669999 -3.52652279 0.38926274 0 0 Z " fill="#466BFB" transform="translate(45.229501724243164,102.75390434265137)"/>
<path d="M0 0 C1.16804169 0.00444122 2.33608337 0.00888245 3.53952026 0.01345825 C4.18354797 0.0131662 4.82757568 0.01287415 5.49111938 0.01257324 C7.623112 0.0139683 9.75475655 0.02953729 11.88668823 0.04519653 C13.36356414 0.04892605 14.84044252 0.05177331 16.31732178 0.05377197 C20.20704971 0.0614133 24.09662861 0.08106596 27.98629761 0.10317993 C31.95437606 0.12362768 35.92247855 0.13277139 39.89059448 0.14285278 C47.67842289 0.16431147 55.46612844 0.19845331 63.25387573 0.24050903 C64.55000634 5.31835837 63.2772912 8.14915536 60.92184448 12.65847778 C60.57003616 13.35693314 60.21822784 14.05538849 59.85575867 14.77500916 C59.11142956 16.24655648 58.36043001 17.71474631 57.60324097 19.17971802 C56.44334954 21.42418958 55.30301685 23.67774384 54.16598511 25.93386841 C53.43988726 27.36347208 52.71271014 28.7925282 51.98434448 30.22097778 C51.64154953 30.89493088 51.29875458 31.56888397 50.9455719 32.26325989 C49.56915968 34.9205689 48.38360013 37.11078463 46.25387573 39.24050903 C43.76606405 39.46489102 41.39281456 39.56862067 38.90231323 39.57644653 C38.16945099 39.58310333 37.43658875 39.58976013 36.68151855 39.59661865 C35.12639882 39.60675558 33.5712355 39.61143535 32.01608276 39.6111145 C29.65839618 39.61545469 27.30263294 39.65166613 24.94528198 39.68972778 C16.03962416 39.75753661 9.41785587 39.50155355 2.26559448 33.59988403 C1.82860229 33.06879028 1.39161011 32.53769653 0.94137573 31.99050903 C0.49149292 31.46972778 0.04161011 30.94894653 -0.42190552 30.41238403 C-4.28261285 24.08036847 -5.20953564 18.19376543 -5.05862427 10.86550903 C-5.06184692 10.05984497 -5.06506958 9.25418091 -5.06838989 8.42410278 C-4.99481103 0.43745186 -4.99481103 0.43745186 0 0 Z " fill="#7792FC" transform="translate(45.746124267578125,148.75949096679688)"/>
</svg>
