<?xml version="1.0" encoding="UTF-8"?><svg id="a" xmlns="http://www.w3.org/2000/svg" xmlns:xlink="http://www.w3.org/1999/xlink" viewBox="0 0 48 48"><defs><linearGradient id="b" x1="48" y1="50" x2="0" y2="2" gradientTransform="translate(0 50) scale(1 -1)" gradientUnits="userSpaceOnUse"><stop offset="0" stop-color="#cdadff"/><stop offset="1" stop-color="#6432f1"/></linearGradient></defs><rect width="48" height="48" rx="13.5" ry="13.5" fill="url(#b)" stroke-width="0"/><path d="M22.4986,16c-.592-2.3003-2.6801-4-5.1653-4-2.9455,0-5.3333,2.3878-5.3333,5.3333s2.3878,5.3334,5.3333,5.3334c2.4852,0,4.5733-1.6997,5.1653-4h4.6125v4.4444h2.6667v-4.4444h1.7778v4.4444h2.6666v-4.4444h1.7778v-2.6667h-13.5014ZM20,17.3333c0,1.4728-1.1939,2.6667-2.6667,2.6667s-2.6666-1.1939-2.6666-2.6667,1.1939-2.6666,2.6666-2.6666,2.6667,1.1939,2.6667,2.6666Z" fill="#fff" fill-rule="evenodd" stroke-width="0"/><path d="M25.5014,32c.592,2.3003,2.6801,4,5.1653,4,2.9455,0,5.3333-2.3878,5.3333-5.3333s-2.3878-5.3334-5.3333-5.3334c-2.4852,0-4.5733,1.6997-5.1653,4h-4.6125v-4.4444h-2.6667v4.4444h-1.7778v-4.4444h-2.6666v4.4444h-1.7778v2.6667h13.5014ZM28,30.6667c0-1.4728,1.1939-2.6667,2.6667-2.6667s2.6666,1.1939,2.6666,2.6667-1.1939,2.6666-2.6666,2.6666-2.6667-1.1939-2.6667-2.6666Z" fill="#fff" fill-rule="evenodd" stroke-width="0"/></svg>