<svg width="57" height="57" viewBox="0 0 57 57" fill="none" xmlns="http://www.w3.org/2000/svg">
<path d="M0 6.26556C0 2.80519 2.80519 0 6.26556 0H50.2015C53.6618 0 56.467 2.80519 56.467 6.26556V50.2015C56.467 53.6618 53.6618 56.467 50.2015 56.467H6.26556C2.80519 56.467 0 53.6618 0 50.2015V6.26556Z" fill="#0D0229"/>
<path d="M15.4917 22.4273C15.4917 22.2543 15.6327 22.1145 15.8056 22.109C20.9471 21.9466 25.0861 17.8076 25.2486 12.6661C25.254 12.4932 25.3938 12.3522 25.5668 12.3522H40.667C40.84 12.3522 40.9803 12.4924 40.9803 12.6655V30.6991C40.9803 30.8722 40.84 31.0124 40.667 31.0124H32.0495C31.8765 31.0124 31.7362 30.8722 31.7362 30.6991V23.34C31.7362 23.0234 31.308 22.8993 31.1277 23.1596C27.7527 28.0332 22.1578 31.2526 15.8056 31.3555C15.6326 31.3583 15.4917 31.2178 15.4917 31.0448V22.4273Z" fill="#E6E0F7"/>
<path d="M40.9803 35.2139C40.9803 35.0408 40.84 34.9006 40.667 34.9006H15.805C15.632 34.9006 15.4917 35.0408 15.4917 35.2139V43.8314C15.4917 44.0044 15.632 44.1446 15.805 44.1446H40.667C40.84 44.1446 40.9803 44.0044 40.9803 43.8314V35.2139Z" fill="#E6E0F7"/>
</svg>
