<?xml version="1.0" encoding="UTF-8"?>
<svg version="1.1" xmlns="http://www.w3.org/2000/svg" width="200" height="200">
<path d="M0 0 C66 0 132 0 200 0 C200 66 200 132 200 200 C134 200 68 200 0 200 C0 134 0 68 0 0 Z " fill="#16073A" transform="translate(0,0)"/>
<path d="M0 0 C18.48 0 36.96 0 56 0 C56 21.78 56 43.56 56 66 C45.11 66 34.22 66 23 66 C22.67 56.76 22.34 47.52 22 38 C20.370625 39.835625 18.74125 41.67125 17.0625 43.5625 C6.05477567 55.65505768 -8.32992944 65.26353432 -25 67 C-27.97 67 -30.94 67 -34 67 C-34 56.11 -34 45.22 -34 34 C-30.37 33.34 -26.74 32.68 -23 32 C-13.85319623 28.23366904 -7.44817094 22.89634187 -3 14 C-2.01 9.38 -1.02 4.76 0 0 Z " fill="#D2C3F7" transform="translate(89,44)"/>
<path d="M0 0 C29.7 0 59.4 0 90 0 C90 10.56 90 21.12 90 32 C60.3 32 30.6 32 0 32 C0 21.44 0 10.88 0 0 Z " fill="#D4C5F9" transform="translate(55,124)"/>
</svg>
