<?xml version="1.0" encoding="UTF-8"?>
<svg version="1.1" xmlns="http://www.w3.org/2000/svg" width="400" height="400">
<path d="M0 0 C1.65197521 -0.00668677 1.65197521 -0.00668677 3.33732367 -0.01350862 C4.54702652 -0.01332426 5.75672938 -0.01313989 7.0030899 -0.01294994 C8.28844336 -0.01662663 9.57379682 -0.02030332 10.89810038 -0.02409142 C14.4687945 -0.03410316 18.03947182 -0.03782689 21.61017799 -0.04048073 C25.46041451 -0.04438632 29.31063775 -0.05396458 33.16086578 -0.0626936 C42.46152246 -0.08245232 51.76218021 -0.09252413 61.06285262 -0.10142139 C65.4445692 -0.10580584 69.82628456 -0.1111723 74.20800018 -0.11641026 C88.77762094 -0.13342305 103.34724095 -0.14791619 117.91687012 -0.155159 C121.69744111 -0.15706884 125.4780121 -0.15898918 129.25858307 -0.16094494 C130.66801987 -0.16167055 130.66801987 -0.16167055 132.10593015 -0.16241082 C147.31981004 -0.17070723 162.5336112 -0.19603736 177.74745673 -0.22852562 C193.37345436 -0.2616214 208.99941203 -0.27961009 224.62544489 -0.28280324 C233.39628893 -0.28496616 242.16701822 -0.29368271 250.93782806 -0.31926441 C258.40923344 -0.34100597 265.88049618 -0.34900493 273.35192961 -0.33929763 C277.16105677 -0.3347627 280.96988989 -0.33659159 284.77897644 -0.35605907 C288.91736271 -0.37702592 293.05510114 -0.36667403 297.19351959 -0.35352612 C298.38537668 -0.36449536 299.57723376 -0.37546461 300.80520773 -0.38676625 C314.86600174 -0.27924848 327.52023264 4.91581266 337.95389557 14.39203358 C346.30514896 23.19737403 352.71734339 35.22469545 352.7404604 47.52798176 C352.74491824 48.62929857 352.74937608 49.73061538 352.75396901 50.86530542 C352.75369247 52.67985971 352.75369247 52.67985971 352.75341034 54.53107166 C352.75708703 55.81642512 352.76076372 57.10177857 352.76455182 58.42608213 C352.77456355 61.99677626 352.77828729 65.56745358 352.78094113 69.13815975 C352.78484672 72.98839627 352.79442498 76.83861951 352.80315399 80.68884754 C352.82291272 89.98950421 352.83298452 99.29016197 352.84188178 108.59083438 C352.84626624 112.97255095 352.8516327 117.35426632 352.85687065 121.73598194 C352.87388345 136.3056027 352.88837659 150.87522271 352.89561939 165.44485188 C352.89752924 169.22542287 352.89944958 173.00599386 352.90140533 176.78656483 C352.90188907 177.72618936 352.90237281 178.6658139 352.90287121 179.63391191 C352.91116763 194.8477918 352.93649775 210.06159296 352.96898601 225.27543849 C353.0020818 240.90143612 353.02007049 256.52739379 353.02326363 272.15342665 C353.02542655 280.92427069 353.0341431 289.69499998 353.05972481 298.46580982 C353.08146636 305.9372152 353.08946533 313.40847794 353.07975803 320.87991136 C353.0752231 324.68903853 353.07705199 328.49787164 353.09651947 332.3069582 C353.11748631 336.44534447 353.10713442 340.58308289 353.09398651 344.72150135 C353.11044038 346.50928698 353.11044038 346.50928698 353.12722665 348.33318949 C353.01970888 362.3939835 347.82464774 375.0482144 338.34842682 385.48187733 C329.54308637 393.83313071 317.51576495 400.24532515 305.21247864 400.26844215 C303.56050342 400.27512892 303.56050342 400.27512892 301.87515497 400.28195077 C300.66545211 400.28176641 299.45574925 400.28158205 298.20938873 400.2813921 C296.92403528 400.28506879 295.63868182 400.28874547 294.31437826 400.29253358 C290.74368413 400.30254531 287.17300682 400.30626905 283.60230064 400.30892289 C279.75206413 400.31282847 275.90184089 400.32240674 272.05161285 400.33113575 C262.75095618 400.35089447 253.45029843 400.36096628 244.14962602 400.36986354 C239.76790944 400.374248 235.38619408 400.37961446 231.00447845 400.38485241 C216.4348577 400.4018652 201.86523769 400.41635834 187.29560852 400.42360115 C183.51503753 400.425511 179.73446654 400.42743133 175.95389557 400.42938709 C175.01427103 400.42987083 174.0746465 400.43035457 173.10654849 400.43085297 C157.8926686 400.43914939 142.67886744 400.46447951 127.46502191 400.49696777 C111.83902427 400.53006355 96.21306661 400.54805225 80.58703375 400.55124539 C71.8161897 400.55340831 63.04546041 400.56212486 54.27465057 400.58770657 C46.8032452 400.60944812 39.33198245 400.61744709 31.86054903 400.60773978 C28.05142186 400.60320486 24.24258875 400.60503374 20.4335022 400.62450123 C16.29511592 400.64546807 12.1573775 400.63511618 8.01895905 400.62196827 C6.82710196 400.63293752 5.63524487 400.64390676 4.40727091 400.65520841 C-9.65352311 400.54769064 -22.307754 395.3526295 -32.74141693 385.87640858 C-41.09267032 377.07106813 -47.50486475 365.04374671 -47.52798176 352.7404604 C-47.5324396 351.63914359 -47.53689745 350.53782678 -47.54149038 349.40313673 C-47.54130601 348.19343387 -47.54112165 346.98373101 -47.5409317 345.73737049 C-47.54644673 343.80934031 -47.54644673 343.80934031 -47.55207318 341.84236002 C-47.56208491 338.27166589 -47.56580865 334.70098858 -47.56846249 331.1302824 C-47.57236808 327.28004588 -47.58194634 323.42982265 -47.59067535 319.57959461 C-47.61043408 310.27893794 -47.62050589 300.97828019 -47.62940314 291.67760777 C-47.6337876 287.2958912 -47.63915406 282.91417583 -47.64439201 278.53246021 C-47.66140481 263.96283945 -47.67589795 249.39321944 -47.68314075 234.82359028 C-47.6850506 231.04301928 -47.68697094 227.2624483 -47.6889267 223.48187733 C-47.68965231 222.07244052 -47.68965231 222.07244052 -47.69039258 220.63453025 C-47.69868899 205.42065036 -47.72401912 190.20684919 -47.75650737 174.99300367 C-47.78960316 159.36700603 -47.80759185 143.74104837 -47.810785 128.11501551 C-47.81294792 119.34417146 -47.82166446 110.57344217 -47.84724617 101.80263233 C-47.86898772 94.33122696 -47.87698669 86.85996421 -47.86727939 79.38853079 C-47.86274446 75.57940362 -47.86457335 71.77057051 -47.88404083 67.96148396 C-47.90500768 63.82309768 -47.89465578 59.68535926 -47.88150787 55.5469408 C-47.89796174 53.75915518 -47.89796174 53.75915518 -47.91474801 51.93525267 C-47.80723024 37.87445865 -42.6121691 25.22022776 -33.13594818 14.78656483 C-24.33060773 6.43531144 -12.30328631 0.02311701 0 0 Z " fill="#0B0B1E" transform="translate(47.393760681152344,-0.13422107696533203)"/>
<path d="M0 0 C7.875 6.75 7.875 6.75 10.95357418 9.83052635 C11.65722384 10.53218497 12.36087351 11.23384358 13.08584589 11.95676458 C14.2108727 13.08616065 14.2108727 13.08616065 15.35862732 14.2383728 C16.58041383 15.45887768 16.58041383 15.45887768 17.8268829 16.70403922 C20.5437877 19.41930258 23.25711315 22.13811413 25.97045898 24.85693359 C27.92171204 26.80902648 29.87372087 28.76036299 31.82569885 30.71173096 C36.02173641 34.90724544 40.21594645 39.10457965 44.40890312 43.30317307 C50.47113697 49.37355127 56.53614669 55.44114986 62.60182656 61.50808449 C72.4441105 71.35255434 82.28416153 81.19925295 92.12280273 91.04736328 C101.67729164 100.61103823 111.2328355 110.17365709 120.78979492 119.73486328 C121.37938098 120.32471206 121.96896704 120.91456085 122.57641935 121.52228384 C125.53435378 124.48152336 128.49230892 127.44074219 131.45027435 130.39995074 C155.97005919 154.93009384 180.48621785 179.46385827 205 204 C206.10302127 203.06374128 207.2047146 202.12591798 208.30586529 201.18745995 C209.22634215 200.40434332 209.22634215 200.40434332 210.16541451 199.60540617 C212.99344462 197.13065806 215.63133171 194.48383546 218.27075195 191.81103516 C218.85377579 191.22494476 219.43679962 190.63885437 220.03749084 190.03500366 C221.28967651 188.77572089 222.5407287 187.51531016 223.79073524 186.25386429 C225.76756662 184.25951766 227.74802941 182.2688433 229.72953796 180.27914429 C235.35792867 174.62639336 240.9805106 168.96788966 246.59887695 163.30517578 C250.04567576 159.83167679 253.49726346 156.36299755 256.95189476 152.89728928 C258.26675173 151.5762105 259.57970643 150.25323566 260.89074135 148.9283638 C262.71475121 147.08525106 264.54473372 145.24827612 266.3762207 143.41259766 C267.19050537 142.58517059 267.19050537 142.58517059 268.02124023 141.74102783 C271.77210109 138 271.77210109 138 274 138 C274 182.88 274 227.76 274 274 C183.58 274 93.16 274 0 274 C0 183.58 0 93.16 0 0 Z " fill="#BD44CB" transform="translate(64,63)"/>
<path d="M0 0 C0.03070046 12.22915607 0.05101212 24.45831088 0.0625 36.6875 C0.06335602 37.5923111 0.06421204 38.49712219 0.06509399 39.42935181 C0.09116684 70.63159199 -0.20364431 101.80657804 -1 133 C-4.80293358 130.90082783 -7.67573838 128.56016222 -10.72265625 125.47265625 C-11.59083984 124.59802734 -12.45902344 123.72339844 -13.35351562 122.82226562 C-14.69446289 121.45618164 -14.69446289 121.45618164 -16.0625 120.0625 C-16.96033203 119.15564453 -17.85816406 118.24878906 -18.78320312 117.31445312 C-20.45420736 115.62605553 -22.12314463 113.93560787 -23.78930664 112.24243164 C-25.26313815 110.74744077 -26.76277138 109.27745591 -28.28686523 107.83374023 C-30 106 -30 106 -30 104 C-30.66 104 -31.32 104 -32 104 C-32 103.34 -32 102.68 -32 102 C-32.66 102 -33.32 102 -34 102 C-34 101.34 -34 100.68 -34 100 C-34.66 100 -35.32 100 -36 100 C-36 99.34 -36 98.68 -36 98 C-36.66 98 -37.32 98 -38 98 C-38 97.34 -38 96.68 -38 96 C-38.66 96 -39.32 96 -40 96 C-40 95.34 -40 94.68 -40 94 C-40.66 94 -41.32 94 -42 94 C-42 93.34 -42 92.68 -42 92 C-42.66 92 -43.32 92 -44 92 C-44 91.34 -44 90.68 -44 90 C-44.66 90 -45.32 90 -46 90 C-46 89.34 -46 88.68 -46 88 C-46.66 88 -47.32 88 -48 88 C-48 87.34 -48 86.68 -48 86 C-48.57975586 85.74621582 -49.15951172 85.49243164 -49.75683594 85.23095703 C-52.25072223 83.86241385 -53.89743836 82.33002231 -55.890625 80.3046875 C-56.59960938 79.58925781 -57.30859375 78.87382812 -58.0390625 78.13671875 C-58.76867187 77.39035156 -59.49828125 76.64398438 -60.25 75.875 C-60.99507813 75.12089844 -61.74015625 74.36679687 -62.5078125 73.58984375 C-64.3431342 71.73099228 -66.1736191 69.86762995 -68 68 C-66.34270805 63.71545697 -63.12257016 60.84180194 -59.9296875 57.67089844 C-59.30837952 57.04608582 -58.68707153 56.42127319 -58.04693604 55.77752686 C-55.99462306 53.71642033 -53.9350916 51.6627046 -51.875 49.609375 C-50.44746084 48.18048885 -49.02021871 46.75130591 -47.59326172 45.32183838 C-44.60382889 42.32945779 -41.6108099 39.34072313 -38.61523438 36.35449219 C-34.76801052 32.51868321 -30.92986132 28.673939 -27.09432983 24.82644272 C-24.15037089 21.87527344 -21.20168569 18.92886374 -18.25152588 15.98389435 C-16.83381134 14.56751753 -15.41759076 13.14964377 -14.00286865 11.73027802 C-12.03013601 9.75249153 -10.05115017 7.78118771 -8.0703125 5.81152344 C-7.48219788 5.21936035 -6.89408325 4.62719727 -6.28814697 4.01708984 C-2.22853056 0 -2.22853056 0 0 0 Z " fill="#CE44B6" transform="translate(338,201)"/>
<path d="M0 0 C3.43199991 1.14399997 3.798039 1.77337217 5.71484375 4.69140625 C6.22990479 5.46307129 6.74496582 6.23473633 7.27563477 7.02978516 C8.09825806 8.283479 8.09825806 8.283479 8.9375 9.5625 C13.16168959 15.87480686 17.45849131 22.08352682 22.0625 28.125 C27.71179559 35.55901638 33.10834446 43.15189996 38.46044922 50.80175781 C41.15210785 54.64503316 43.85762092 58.4785238 46.5625 62.3125 C47.06330078 63.02398193 47.56410156 63.73546387 48.08007812 64.46850586 C50.3438339 67.67976297 52.61530434 70.87661073 55 74 C54.67 74.66 54.34 75.32 54 76 C46.66666667 68.66666667 39.33333333 61.33333333 32 54 C31.23268555 53.27393555 30.46537109 52.54787109 29.67480469 51.79980469 C28 50 28 50 28 48 C27.34 48 26.68 48 26 48 C26 47.34 26 46.68 26 46 C25.34 46 24.68 46 24 46 C24 45.34 24 44.68 24 44 C23.34 44 22.68 44 22 44 C22 43.34 22 42.68 22 42 C21.34 42 20.68 42 20 42 C20 41.34 20 40.68 20 40 C19.34 40 18.68 40 18 40 C18 39.34 18 38.68 18 38 C17.34 38 16.68 38 16 38 C16 37.34 16 36.68 16 36 C15.34 36 14.68 36 14 36 C14 35.34 14 34.68 14 34 C13.34 34 12.68 34 12 34 C12 33.34 12 32.68 12 32 C11.34 32 10.68 32 10 32 C10 31.34 10 30.68 10 30 C9.42024414 29.74621582 8.84048828 29.49243164 8.24316406 29.23095703 C5.74927777 27.86241385 4.10256164 26.33002231 2.109375 24.3046875 C1.40039062 23.58925781 0.69140625 22.87382812 -0.0390625 22.13671875 C-0.76867187 21.39035156 -1.49828125 20.64398438 -2.25 19.875 C-2.99507813 19.12089844 -3.74015625 18.36679687 -4.5078125 17.58984375 C-6.3431342 15.73099228 -8.1736191 13.86762995 -10 12 C-8.39464713 8.58940597 -6.59481099 6.38207516 -3.875 3.75 C-3.15054687 3.04359375 -2.42609375 2.3371875 -1.6796875 1.609375 C-1.12539063 1.07828125 -0.57109375 0.5471875 0 0 Z " fill="#A43AAF" transform="translate(280,257)"/>
</svg>
