<?xml version="1.0" encoding="UTF-8"?><svg xmlns="http://www.w3.org/2000/svg" viewBox="0 0 512 512"><g id="a"><rect width="512" height="512" fill="#30b6cf" stroke-width="0"/></g><g id="b"><path d="M249.247,478c-114.129,0-193.855-70.149-193.855-170.593-.007-95.066,108.374-251.414,230.759-284.133-27.745,27.731-65.864,69.538-87.13,115.174-30.147,64.699-33.003,163.467-30.367,175.07l4.256,18.729,18.09-6.999c19.532-7.553,38.367-18.445,56.002-32.385,6.664-5.301,13.057-10.933,19.155-16.875,4.203-4.104,8.274-8.341,12.207-12.704,38.808-43.135,63.676-98.974,67.69-149.207,55.249,36.946,97.07,117.589,97.07,193.33,0,100.445-79.719,170.593-193.877,170.593Z" fill="#fff" fill-rule="evenodd" stroke-width="0"/></g></svg>