<svg xmlns="http://www.w3.org/2000/svg" fill="none" viewBox="0 0 28 28" width="28" height="28" role="img"><g clip-path="url(#onekey-clip)"><path fill="#44D62C" d="M27.91 13.955c0 9.634-4.321 13.955-13.955 13.955S0 23.589 0 13.955 4.321 0 13.955 0 27.91 4.321 27.91 13.955"/><path fill="#000" d="M15.216 5.917h-3.882l-.681 2.06h2.156v4.338h2.407z"/><path fill="#000" fill-rule="evenodd" d="M18.383 17.565a4.427 4.427 0 1 1-8.855 0 4.427 4.427 0 0 1 8.855 0m-2.01 0a2.417 2.417 0 1 1-4.835 0 2.417 2.417 0 0 1 4.834 0" clip-rule="evenodd"/></g><defs><clipPath id="onekey-clip"><path fill="#fff" d="M0 0h28v28H0z"/></clipPath></defs></svg>
