<?xml version="1.0" encoding="UTF-8"?>
<svg version="1.1" xmlns="http://www.w3.org/2000/svg" width="128" height="128">
<path d="M0 0 C2.31811523 -0.23486328 2.31811523 -0.23486328 5 0 C6.57446289 1.55126953 6.57446289 1.55126953 7.91015625 3.7578125 C8.41434082 4.5818457 8.91852539 5.40587891 9.43798828 6.25488281 C12.18713637 11.08630217 14.84275764 15.95897316 17.4375 20.875 C21.63273278 28.82013325 26.06585281 36.48809205 31 44 C31.40202637 43.27111572 31.80405273 42.54223145 32.21826172 41.79125977 C35.81385533 35.2786703 39.42397561 28.77459148 43.0552063 22.28181458 C45.07245274 18.67250816 47.06637692 15.05144087 49.046875 11.421875 C49.90508124 9.88476354 50.76435639 8.34824808 51.625 6.8125 C52.18936768 5.75494507 52.18936768 5.75494507 52.76513672 4.67602539 C53.8515625 2.76953125 53.8515625 2.76953125 56 0 C58.7734375 -0.42578125 58.7734375 -0.42578125 61 0 C67.86827579 13.73655158 64.35850768 35.16445249 60 49 C59.23925916 51.27335291 58.47036698 53.54398713 57.6953125 55.8125 C57.28466553 57.01632324 56.87401855 58.22014648 56.45092773 59.46044922 C55.61897568 61.8735121 54.77247362 64.28161529 53.91040039 66.68408203 C53.52102295 67.80153809 53.13164551 68.91899414 52.73046875 70.0703125 C52.19522583 71.56715576 52.19522583 71.56715576 51.64916992 73.09423828 C50.22724391 79.45894809 52.86289973 83.94931392 56 89.3125 C60.07841936 96.66602727 62.17718759 102.22264131 60.0625 110.625 C58.02394785 115.89585105 54.5596294 118.83184371 50 122 C49.31421875 122.50917969 48.6284375 123.01835938 47.921875 123.54296875 C40.02095568 128.47413693 29.97261945 128.64055807 21 127 C12.95904499 124.40249023 5.98975814 119.53620983 2 112 C-0.36840371 104.89478888 0.50288948 99.4562657 3.76586914 92.82495117 C5.15173495 90.15419283 6.56972311 87.50375807 8.03857422 84.87768555 C8.35584473 84.25804932 8.67311523 83.63841309 9 83 C9.62926392 81.91114502 9.62926392 81.91114502 10.27124023 80.80029297 C11.34430084 76.67700816 9.96578743 73.44767513 8.60546875 69.55859375 C8.33865799 68.75390152 8.07184723 67.94920929 7.79695129 67.12013245 C6.94243832 64.55382383 6.06560721 61.99582002 5.1875 59.4375 C4.32532731 56.8740694 3.46768248 54.30915305 2.61018372 51.74415588 C2.07535699 50.15020107 1.53683393 48.55748055 0.9941864 46.96617126 C-1.50049666 39.63950731 -2.19243191 33.83419742 -2.1875 26.125 C-2.18814453 25.09882568 -2.18878906 24.07265137 -2.18945312 23.01538086 C-2.13525712 15.18221097 -1.49516371 7.70276302 0 0 Z " fill="#B7B9C3" transform="translate(33,0)"/>
<path d="M0 0 C2.99721398 2.7790738 4.99210285 5.42535769 6.91015625 9.02734375 C7.42513672 9.98447266 7.94011719 10.94160156 8.47070312 11.92773438 C8.99599609 12.92095703 9.52128906 13.91417969 10.0625 14.9375 C11.11503862 16.90540107 12.16839731 18.87286377 13.22265625 20.83984375 C13.68422119 21.70988037 14.14578613 22.57991699 14.62133789 23.47631836 C15.97850958 26.05516432 15.97850958 26.05516432 17.73193359 28.56079102 C19 31 19 31 18.84985352 33.04296875 C18.46204712 34.10451172 18.46204712 34.10451172 18.06640625 35.1875 C17.76492676 36.05632812 17.46344727 36.92515625 17.15283203 37.8203125 C16.77239746 38.86960938 16.39196289 39.91890625 16 41 C15.54540856 42.35025313 15.09502235 43.70192643 14.64794922 45.0546875 C13.37221899 48.90996347 12.0697373 52.75546611 10.7565918 56.59814453 C9.93047152 59.0206099 9.11270681 61.44580378 8.29492188 63.87109375 C7.76874037 65.41423691 7.24206581 66.95721205 6.71484375 68.5 C6.35071632 69.58583374 6.35071632 69.58583374 5.97923279 70.69360352 C4.22847459 75.77152541 4.22847459 75.77152541 2 78 C-0.00683594 77.84472656 -0.00683594 77.84472656 -2 77 C-5.97256863 69.61299221 -8.36150733 61.44085023 -11.00146484 53.49658203 C-11.7539425 51.23816735 -12.51920077 48.98434284 -13.28515625 46.73046875 C-13.76900813 45.28411452 -14.2521081 43.83750849 -14.734375 42.390625 C-15.07647003 41.3889328 -15.07647003 41.3889328 -15.42547607 40.36700439 C-16.99880378 35.57640267 -17.94035827 32.13714094 -15.87011719 27.43212891 C-15.35094727 26.53929199 -14.83177734 25.64645508 -14.296875 24.7265625 C-13.72839844 23.7365625 -13.15992188 22.7465625 -12.57421875 21.7265625 C-11.97222656 20.70304687 -11.37023438 19.67953125 -10.75 18.625 C-10.16347656 17.60921875 -9.57695313 16.5934375 -8.97265625 15.546875 C-7.83582828 13.57977941 -6.69472179 11.61514869 -5.54882812 9.65332031 C-3.67756186 6.44762647 -1.83572136 3.22614398 0 0 Z " fill="#010101" transform="translate(63,47)"/>
</svg>
