<?xml version="1.0" encoding="UTF-8"?><svg id="a" xmlns="http://www.w3.org/2000/svg" viewBox="0 0 1415.17578 540.07715"><path d="M459.81176,298.27377v-18.65845c-50.6037-34.0509-133.59875-56.2556-227.40588-56.2556S55.60369,245.56442,5,279.61533v18.65845c57.69244-12.71078,138.25195-20.60663,227.40588-20.60663s169.71344,7.89584,227.40588,20.60663Z" fill="none" stroke="#000" stroke-miterlimit="10" stroke-width="10"/><line x1="189.15588" y1="192.60272" x2="189.15588" fill="none" stroke="#000" stroke-miterlimit="10" stroke-width="10"/><polygon points="220.96201 133.491 211.558 130.073 189.15601 191.62601 166.754 130.073 157.35899 133.491 189.15601 220.86 220.96201 133.491" stroke="#000" stroke-miterlimit="10"/><line x1="102.65588" y1="205.743" x2="102.65588" fill="none" stroke="#000" stroke-miterlimit="10" stroke-width="10"/><polygon points="134.46201 146.631 125.058 143.214 102.656 204.76601 80.254 143.214 70.859 146.631 102.656 234 134.46201 146.631" stroke="#000" stroke-miterlimit="10"/><line x1="275.65588" y1="192.60272" x2="275.65588" fill="none" stroke="#000" stroke-miterlimit="10" stroke-width="10"/><polygon points="307.46201 133.491 298.05801 130.073 275.65601 191.62601 253.254 130.073 243.85899 133.491 275.65601 220.86 307.46201 133.491" stroke="#000" stroke-miterlimit="10"/><line x1="362.15588" y1="205.743" x2="362.15588" fill="none" stroke="#000" stroke-miterlimit="10" stroke-width="10"/><polygon points="393.96201 146.631 384.55801 143.214 362.15601 204.76601 339.754 143.214 330.35901 146.631 362.15601 234 393.96201 146.631" stroke="#000" stroke-miterlimit="10"/><line x1="124.7659" y1="281.68924" x2="232.40588" y2="472.5" fill="none" stroke="#000" stroke-miterlimit="10" stroke-width="10"/><line x1="340.04587" y1="281.68924" x2="232.40588" y2="472.5" fill="none" stroke="#000" stroke-miterlimit="10" stroke-width="10"/><line x1="269.39026" y1="278.12646" x2="232.40588" y2="472.5" fill="none" stroke="#000" stroke-miterlimit="10" stroke-width="10"/><line x1="195.42151" y1="278.12646" x2="232.40588" y2="472.5" fill="none" stroke="#000" stroke-miterlimit="10" stroke-width="10"/><path d="M504.13086,327.38184v131.39648h-11.13281v-158.49609h10.98633l.14648,27.09961ZM554.375,298.81738l-.87891,10.54688c-1.46484-.29297-2.95508-.5127-4.46777-.65918-1.51562-.14648-3.14941-.21973-4.90723-.21973-6.83691,0-12.84277,1.63672-18.01758,4.90723-5.17773,3.27344-9.52148,7.83691-13.03711,13.69629s-6.17773,12.62305-7.9834,20.28809c-1.80859,7.66797-2.76074,15.79785-2.85645,24.38965l-4.98047,1.31836c0-10.83984.95215-20.84863,2.85645-30.0293,1.9043-9.17773,4.83398-17.21191,8.78906-24.09668s8.88477-12.20605,14.79492-15.9668c5.90723-3.75781,12.91309-5.63965,21.02051-5.63965,1.85352,0,3.66211.12402,5.41992.36621,1.75781.24512,3.17188.61133,4.24805,1.09863Z"/><path d="M626.5625,462.00098c-8.49609,0-16.3584-1.51562-23.58398-4.54102-7.22852-3.02539-13.52734-7.51855-18.89648-13.47656-5.37207-5.95508-9.54688-13.52441-12.52441-22.70508-2.98047-9.17773-4.46777-19.92188-4.46777-32.22656v-18.01758c0-12.59766,1.5127-23.5332,4.54102-32.8125,3.02539-9.27637,7.17773-16.91895,12.45117-22.9248s11.32715-10.49609,18.16406-13.47656c6.83398-2.97754,14.0625-4.46777,21.67969-4.46777,8.00586,0,15.20898,1.2959,21.60645,3.88184,6.39453,2.58887,11.86523,6.56934,16.40625,11.93848,4.54102,5.37207,8.00586,12.25684,10.40039,20.6543,2.3916,8.40039,3.58887,18.45703,3.58887,30.17578v12.59766h-101.95312v-10.54688h90.82031v-4.24805c0-11.71875-1.61133-21.58105-4.83398-29.58984-3.22266-8.00586-7.8877-14.0625-13.98926-18.16406-6.10449-4.10156-13.4541-6.15234-22.0459-6.15234-6.83691,0-13.03711,1.31836-18.60352,3.95508s-10.40039,6.54395-14.50195,11.71875c-4.10156,5.17773-7.25098,11.74414-9.44824,19.70215-2.19727,7.96094-3.2959,17.21191-3.2959,27.75879v18.01758c0,10.45117,1.21973,19.55566,3.66211,27.31934,2.43945,7.76367,5.85938,14.23438,10.25391,19.40918,4.39453,5.17773,9.56934,9.05957,15.52734,11.64551,5.95508,2.58887,12.45117,3.88184,19.48242,3.88184,7.71289,0,14.81738-1.21973,21.31348-3.66211,6.49316-2.43945,12.32715-6.6875,17.50488-12.74414l6.00586,6.88477c-2.92969,3.80859-6.49609,7.25098-10.69336,10.32715-4.2002,3.07617-9.10742,5.49316-14.72168,7.25098-5.61719,1.75781-12.23145,2.63672-19.84863,2.63672Z"/><path d="M760.27344,300.28223v10.40039h-67.38281v-10.40039h67.38281ZM726.58203,458.77832h-10.98633v-180.17578c0-10.25391,1.5127-18.94434,4.54102-26.07422,3.02539-7.12695,7.32422-12.54688,12.89062-16.25977,5.56641-3.70996,12.20605-5.56641,19.92188-5.56641,2.53809,0,5.2002.17188,7.9834.5127,2.7832.34326,5.39453,1.05078,7.83691,2.12402l-1.02539,10.10742c-2.14941-.78027-4.27344-1.34082-6.37207-1.68457-2.10156-.34082-4.71289-.5127-7.83691-.5127-5.4707,0-10.23145,1.49023-14.28223,4.46777-4.05371,2.98047-7.17773,7.25098-9.375,12.81738s-3.2959,12.25684-3.2959,20.06836v180.17578Z"/><path d="M796.42578,327.38184v131.39648h-11.13281v-158.49609h10.98633l.14648,27.09961ZM846.66992,298.81738l-.87891,10.54688c-1.46484-.29297-2.95508-.5127-4.46777-.65918-1.51562-.14648-3.14941-.21973-4.90723-.21973-6.83691,0-12.84277,1.63672-18.01758,4.90723-5.17773,3.27344-9.52148,7.83691-13.03711,13.69629s-6.17773,12.62305-7.9834,20.28809c-1.80859,7.66797-2.76074,15.79785-2.85645,24.38965l-4.98047,1.31836c0-10.83984.95215-20.84863,2.85645-30.0293,1.9043-9.17773,4.83398-17.21191,8.78906-24.09668s8.88477-12.20605,14.79492-15.9668c5.90723-3.75781,12.91309-5.63965,21.02051-5.63965,1.85352,0,3.66211.12402,5.41992.36621,1.75781.24512,3.17188.61133,4.24805,1.09863Z"/><path d="M954.59961,368.83691l.29297,10.10742h-34.13086c-8.40039,0-15.69922.95215-21.89941,2.85645-6.20312,1.9043-11.33008,4.5918-15.38086,8.05664-4.05371,3.46777-7.08203,7.56934-9.08203,12.30469-2.00293,4.73828-3.00293,10.03418-3.00293,15.89355,0,7.42285,1.31836,13.5498,3.95508,18.38379s6.39453,8.47363,11.2793,10.91309c4.88184,2.44238,10.49609,3.66211,16.8457,3.66211,8.78906,0,16.5752-1.68457,23.36426-5.05371,6.78613-3.36914,12.45117-8.00586,16.99219-13.91602,4.54102-5.90723,7.78613-12.62012,9.74121-20.1416l3.95508,8.20312c-1.36914,4.78613-3.51562,9.64551-6.44531,14.5752-2.92969,4.93262-6.66504,9.44824-11.20605,13.5498s-9.8877,7.42285-16.04004,9.96094-13.18359,3.80859-21.09375,3.80859c-8.49609,0-15.91895-1.66211-22.26562-4.98047-6.34961-3.31836-11.25684-8.20312-14.72168-14.64844-3.46777-6.44531-5.2002-14.5498-5.2002-24.31641,0-7.12695,1.26758-13.69629,3.80859-19.70215,2.53809-6.00586,6.24805-11.22852,11.13281-15.67383,4.88184-4.44238,11.00879-7.85938,18.38379-10.25391,7.37207-2.3916,15.94141-3.58887,25.70801-3.58887h35.00977ZM951.37695,429.48145v-85.98633c0-8.39746-1.44238-15.20898-4.32129-20.43457-2.88184-5.22266-7.10449-9.05664-12.6709-11.49902-5.56641-2.43945-12.40332-3.66211-20.50781-3.66211-7.52148,0-14.20898,1.49023-20.06836,4.46777-5.85938,2.98047-10.49902,7.15527-13.91602,12.52441-3.41992,5.37207-5.12695,11.71875-5.12695,19.04297l-10.83984-.29297c0-6.34668,1.21973-12.32715,3.66211-17.94434,2.43945-5.61426,5.88184-10.54688,10.32715-14.79492,4.44238-4.24805,9.76367-7.56641,15.9668-9.96094,6.2002-2.3916,13.05957-3.58887,20.58105-3.58887,9.27637,0,17.50488,1.53809,24.68262,4.61426s12.83984,7.9834,16.99219,14.72168c4.14941,6.73828,6.22559,15.77246,6.22559,27.09961v82.61719c0,5.66504.34082,11.35254,1.02539,17.06543.68164,5.71289,1.61133,10.32715,2.7832,13.84277v1.46484h-12.01172c-.87891-3.70996-1.56348-8.27637-2.05078-13.69629-.49023-5.41992-.73242-10.62012-.73242-15.60059Z"/><path d="M1049.63867,451.30762c6.54102,0,12.7666-1.14648,18.67676-3.44238,5.90723-2.29297,10.81445-6.41992,14.72168-12.37793,3.9043-5.95508,6.05371-14.30469,6.44531-25.04883h10.83984c-.49023,11.71875-3.07617,21.38672-7.76367,29.00391s-10.79199,13.28223-18.31055,16.99219c-7.52148,3.70996-15.72461,5.56641-24.60938,5.56641-9.08203,0-17.11621-1.56348-24.09668-4.6875-6.9834-3.12402-12.84277-7.73828-17.57812-13.84277-4.73828-6.10156-8.32715-13.74414-10.7666-22.9248-2.44238-9.17773-3.66211-19.92188-3.66211-32.22656v-17.57812c0-12.30469,1.21973-23.0459,3.66211-32.22656,2.43945-9.17773,6.02832-16.82031,10.7666-22.9248,4.73535-6.10156,10.59473-10.66797,17.57812-13.69629,6.98047-3.02539,15.01465-4.54102,24.09668-4.54102,8.9834,0,17.23438,1.85645,24.75586,5.56641,7.51855,3.71289,13.62305,9.64551,18.31055,17.79785,4.6875,8.15527,7.22559,18.92188,7.61719,32.2998h-10.83984c-.3916-11.22852-2.46777-20.1416-6.22559-26.7334-3.76074-6.5918-8.56934-11.30176-14.42871-14.13574-5.85938-2.83105-12.25684-4.24805-19.18945-4.24805-7.91016,0-14.72168,1.34375-20.43457,4.02832-5.71289,2.6875-10.40039,6.69043-14.0625,12.01172-3.66211,5.32422-6.34961,11.91602-8.05664,19.77539-1.70996,7.8623-2.56348,16.87109-2.56348,27.02637v17.57812c0,10.1582.85352,19.18945,2.56348,27.09961,1.70703,7.91016,4.39453,14.52734,8.05664,19.84863,3.66211,5.32422,8.34961,9.32715,14.0625,12.01172,5.71289,2.6875,12.52441,4.02832,20.43457,4.02832Z"/><path d="M1178.07617,300.28223v10.40039h-64.74609v-10.40039h64.74609ZM1137.93945,258.3877h11.2793v162.1582c0,8.59473.85352,15.06543,2.56348,19.40918,1.70703,4.34668,3.97754,7.27637,6.81152,8.78906,2.83105,1.51562,5.85938,2.27051,9.08203,2.27051,2.53809,0,4.7832-.14648,6.73828-.43945,1.95215-.29297,3.95508-.63379,6.00586-1.02539l.87891,10.25391c-1.75781.68164-4.10156,1.17188-7.03125,1.46484s-5.61719.43945-8.05664.43945c-5.56641,0-10.47363-1.22266-14.72168-3.66211s-7.56934-6.66504-9.96094-12.6709c-2.39453-6.00586-3.58887-14.28223-3.58887-24.8291v-162.1582Z"/><path d="M1202.2168,387.87988v-16.69922c0-11.81445,1.31836-22.28809,3.95508-31.4209,2.63672-9.12988,6.44531-16.8457,11.42578-23.14453s10.93555-11.08203,17.87109-14.35547c6.93262-3.27051,14.69629-4.90723,23.29102-4.90723,8.78906,0,16.62598,1.63672,23.51074,4.90723,6.88477,3.27344,12.79199,8.05664,17.72461,14.35547,4.92969,6.29883,8.69043,14.01465,11.2793,23.14453,2.58594,9.13281,3.88184,19.60645,3.88184,31.4209v16.69922c0,11.71875-1.2959,22.14453-3.88184,31.27441-2.58887,9.13281-6.32422,16.89648-11.20605,23.29102-4.88477,6.39746-10.81738,11.25684-17.79785,14.5752-6.9834,3.31836-14.77246,4.98047-23.36426,4.98047-8.69336,0-16.50488-1.66211-23.4375-4.98047-6.93555-3.31836-12.89062-8.17773-17.87109-14.5752-4.98047-6.39453-8.78906-14.1582-11.42578-23.29102-2.63672-9.12988-3.95508-19.55566-3.95508-31.27441ZM1213.20312,371.18066v16.69922c0,9.2793.97461,17.77539,2.92969,25.48828,1.95215,7.71582,4.83398,14.40625,8.64258,20.06836,3.80859,5.66504,8.56934,10.05957,14.28223,13.18359,5.71289,3.12695,12.32715,4.6875,19.84863,4.6875,7.61719,0,14.28223-1.56055,19.99512-4.6875,5.71289-3.12402,10.44824-7.51855,14.20898-13.18359,3.75781-5.66211,6.56641-12.35254,8.42285-20.06836,1.85352-7.71289,2.7832-16.20898,2.7832-25.48828v-16.69922c0-9.08203-.95215-17.47949-2.85645-25.19531-1.9043-7.71289-4.78613-14.40332-8.64258-20.06836-3.85938-5.66211-8.62012-10.08203-14.28223-13.25684-5.66504-3.17188-12.25684-4.76074-19.77539-4.76074-7.42285,0-13.98926,1.58887-19.70215,4.76074-5.71289,3.1748-10.47363,7.59473-14.28223,13.25684-3.80859,5.66504-6.69043,12.35547-8.64258,20.06836-1.95508,7.71582-2.92969,16.11328-2.92969,25.19531Z"/><path d="M1358.48633,327.38184v131.39648h-11.13281v-158.49609h10.98633l.14648,27.09961ZM1408.73047,298.81738l-.87891,10.54688c-1.46484-.29297-2.95508-.5127-4.46777-.65918-1.51562-.14648-3.14941-.21973-4.90723-.21973-6.83691,0-12.84277,1.63672-18.01758,4.90723-5.17773,3.27344-9.52148,7.83691-13.03711,13.69629s-6.17773,12.62305-7.9834,20.28809c-1.80859,7.66797-2.76074,15.79785-2.85645,24.38965l-4.98047,1.31836c0-10.83984.95215-20.84863,2.85645-30.0293,1.9043-9.17773,4.83398-17.21191,8.78906-24.09668s8.88477-12.20605,14.79492-15.9668c5.90723-3.75781,12.91309-5.63965,21.02051-5.63965,1.85352,0,3.66211.12402,5.41992.36621,1.75781.24512,3.17188.61133,4.24805,1.09863Z"/></svg>