<svg version="1" xmlns="http://www.w3.org/2000/svg" width="1266.667" height="1266.667" viewBox="0 0 950.000000 950.000000"><path d="M205.4 189.1c.1 104-.2 189.5-.5 190.1-.5.8-1.2-.8-2.5-5.7-.1-.6-2.3-6.6-4.9-13.5-4.7-12.6-11.8-32-13.7-37.5-.5-1.7-1.4-3.9-1.8-5-.5-1.1-2.7-7.2-5-13.5-5.8-16.2-6.2-17-7-17-.4 0-2.7.7-5.1 1.6-2.4.9-4.8 1.7-5.4 1.9-1.9.5-7.5 2.7-7.5 2.9 0 .5 5.2 15.2 6 17.1.5 1.1 5.7 15.3 11.5 31.5s11.2 31.1 11.9 33c2.5 6.3 4.8 12.4 6.2 17 .8 2.5 1.9 5.4 2.4 6.5 1.2 2.8 11 29.6 11.5 31.5.2.8.9 2.8 1.6 4.5.6 1.6 1.4 3.9 1.6 4.9.2 1.1.7 2.4 1.2 3 .4.6 1.1 2 1.4 3.1.5 1.8 5.5 15.6 7.2 19.7.5 1.1 0 1.8-1.7 2.4-1.3.4-2.4.7-2.5.6-.2 0-1.7.4-3.5.9-1.8.6-4 1.2-4.9 1.4-4.8 1-37.7 10.9-45.4 13.5-4.9 1.7-9.7 3.3-10.5 3.5-3.1.9-13.6 4.5-15.5 5.4-1.1.6-7.4 3.1-14 5.6-6.6 2.5-14.2 5.7-17 7-2.7 1.3-6.7 2.9-8.7 3.5-2.1.6-3.8 1.6-3.8 2.1s-.6.9-1.4.9c-1.2 0-33.9 16.1-38.6 19-.8.5-6.2 3.7-12 7.1-5.8 3.3-11.9 7.2-13.7 8.5-1.7 1.3-3.5 2.4-3.8 2.4-.3 0-2.2 1.2-4.1 2.6l-3.4 2.6v27.5c0 25.7.1 27.4 1.8 26.9.9-.3 3.1-.8 4.7-1.1 1.7-.2 4-.7 5.3-1 6.1-1.4 16-3.4 19.8-4.1 1.6-.3 3.8-.8 4.9-1.1 1.1-.4 3.4-.7 5.1-.8 1.7-.1 3.5-.4 4-.7.8-.5 8.6-2 11.9-2.3.9-.1 2.7-.4 10.5-2 1.4-.3 3.9-.7 5.5-.9 1.7-.3 5.3-.9 8.1-1.5 4.6-.9 9.7-1.7 17.9-2.7 5.4-.6 10-1.3 12.5-1.8 1.4-.3 4.5-.7 7-1 2.5-.3 5.5-.8 6.7-1 2.1-.4 10.2-1.5 16.8-2.1 1.7-.2 4.6-.6 6.5-.9 3.6-.5 8.8-1.2 17.5-2.1 2.8-.3 6.6-.7 8.5-1 5.8-.7 13.2-1.5 19-2 3-.3 7.6-.7 10.2-1.1 2.6-.3 7.1-.7 10-.9 2.9-.2 8.7-.7 12.8-1.1 15.3-1.4 16.9-1.2 18.8 2.1.9 1.6 2.3 3.5 2.9 4.3.7.7 1.6 2.4 1.9 3.8.3 1.3 1 2.4 1.5 2.4s.9.4.9.9c0 .8 9 17.3 12 22.1.6.8 2 3.5 3.3 6 1.3 2.5 5.4 9.6 9 15.9 3.7 6.2 6.7 11.9 6.7 12.6 0 .8.4 1.5.8 1.7.4.1 5.1 7.9 10.4 17.3 5.3 9.3 10.6 18.8 11.9 21 1.3 2.2 3.3 5.9 4.4 8.1 1.2 2.3 3.8 6.8 5.8 10.1 2.1 3.4 3.7 6.3 3.7 6.7 0 .3 1.8 3.5 4 7.1 2.2 3.6 4 6.7 4 6.9 0 .2 5 9.1 11 19.6 6.1 10.6 11 19.5 11 19.7 0 .2 1.1 2 2.3 4.1 1.3 2 3.9 6.4 5.7 9.7 6.7 12.3 7.4 13.5 16.1 28.5 2.4 4.1 4.4 7.7 4.4 8 0 .3 1.9 3.6 4.1 7.5 2.3 3.8 5.4 9.2 6.9 12 1.5 2.7 4.2 7.5 5.9 10.5 1.8 3 5.9 10.2 9.1 16 3.2 5.8 7.9 14.1 10.4 18.5 2.6 4.4 5.3 9.3 6.1 11 .8 1.6 1.7 3.2 2 3.5.5.4 9.1 15.7 14.5 25.5.6 1.1 4.8 8.6 9.4 16.7 7.9 14 8.4 14.7 10.4 13.6 1.2-.7 2.5-1.1 3-1 .4.1.7-.2.7-.7 0-2 3.1-1.8 7.3.5l4.6 2.4 6.5-11.8c3.5-6.4 6.9-12.2 7.4-12.8.5-.6 1.3-2 1.6-3.2.4-1.2 1.1-2.2 1.5-2.2.4 0 .8-.6.8-1.3 0-.6 1.9-4.2 4.1-8 2.3-3.7 4.2-7.2 4.2-7.7 0-.6.5-1 1.2-1 .6 0 .9-.3.5-.6-.3-.3.5-2.4 1.9-4.6 2.6-4.1 3.4-5.5 9.9-17.3 2.1-3.9 6.9-12.3 10.7-18.8 3.7-6.5 6.8-12 6.8-12.2 0-.2 2-3.8 4.5-7.9 2.5-4.2 4.5-8.1 4.5-8.6 0-.6.5-1 1.1-1 .5 0 .8-.4.5-.9-.3-.5.1-1.4.9-2.1.8-.7 1.5-1.6 1.5-2 0-.5 2-4.3 4.5-8.4 2.5-4.2 4.5-8.1 4.5-8.6s.6-1.5 1.3-2.2c.6-.7 2.2-3.1 3.4-5.3 3.1-5.9 5.8-10.7 13.1-23.5 3.6-6.3 7.6-13.5 9-16 1.4-2.5 4.9-8.7 7.8-13.8 3-5.2 5.4-9.6 5.4-9.9 0-.3.8-1.7 1.9-3.1 1-1.5 3.7-6.2 6-10.5s5.1-9.3 6.1-11c4.9-8.3 11.6-20.4 12.3-22.5.5-1.2 1.3-2.2 1.8-2.2s.9-.4.9-.9 2.5-5.3 5.6-10.7c3.1-5.5 7-12.4 8.7-15.4 1.6-3 9.5-16.9 17.4-30.9 7.8-13.9 14.3-25.7 14.3-26.1 0-.5.3-1 .8-1.2.4-.1 1.5-1.9 2.6-3.8 5.2-9.7 8.2-15 11.3-20.3l3.5-5.8 7.6.7c4.3.3 9.1.8 10.7.9 1.7.2 6.6.6 11 .9 9 .8 13.4 1.4 14.7 2.2.4.3.8 0 .8-.6s.4-.9.9-.6c1.3.9 8.4 1.8 24.1 3.1 3 .3 6.5.7 7.7.9 1.2.3 5.3.8 9 1.1 3.7.4 7.9.8 9.3 1.1 1.4.2 4.5.6 7 .9 2.5.3 5.9.8 7.5 1 1.7.3 5 .7 7.5 1 2.5.3 5.6.7 7 1 1.4.3 5 .8 8 1.1 3 .3 6 1 6.7 1.5.7.7 1.4.6 1.8-.1.4-.6 1.2-.7 2.3-.1.9.5 4.2 1.2 7.2 1.6 7.9 1 9.5 1.2 13.2 2 1.8.4 4.9 1 6.8 1.2 7.1.8 8.5 1.1 10 1.6.8.3 4.4 1 8 1.6 6.6 1.1 7.6 1.3 16.5 3.1 2.8.5 6.4 1.2 8.2 1.5 1.7.3 5.8 1.2 9 1.9 3.2.8 7.2 1.7 8.8 2 1.7.3 4.1.8 5.5 1.1 1.4.3 3.5.8 4.8 1.1l2.2.4v-54.9l-3.2-2.3c-1.8-1.3-4-2.8-5-3.3-.9-.6-6.9-4.3-13.2-8.3-6.4-3.9-12-7.2-12.5-7.2s-1.4-.7-2.1-1.5c-.7-.9-1.5-1.3-1.8-1.1-.3.3-1.7-.3-3.1-1.3-3.7-2.7-35.6-18.1-48.6-23.6-6-2.5-11.9-5-13-5.6-5.7-2.6-47.5-17.6-51.7-18.5-.5-.1-.9-.2-1-.4-.3-.2-1.5-.5-8-2.1-2.7-.7-4.8-1.6-4.8-2.1s-.3-.7-.8-.4c-.4.2-5.2-.9-10.7-2.5-5.5-1.7-10.9-3.2-12-3.4-3.3-.6-12.7-3.3-13.1-3.8-.4-.4.4-2.9 2.7-8.2.5-1.1 2.8-7.2 5-13.5 2.3-6.3 5.8-16.2 7.9-22 2.1-5.8 4.3-11.7 4.9-13.3.6-1.5.7-2.7.3-2.7-.4 0-.2-.4.3-.8.6-.4 1.6-2.3 2.2-4.2.9-3.1 4.5-12.8 23.4-64.5 2.2-6.1 4.3-11.7 4.6-12.5.4-.8.7-1.7.7-2 .4-1.5 9-24.9 9.9-26.8 1-2 .8-2.6-.8-3.5-1.1-.6-2.4-1.2-3-1.3-.5-.1-3.6-1.2-6.8-2.4-3.1-1.2-6.2-2-6.8-1.8-.5.2-2 3.3-3.3 6.8-6.5 18.2-24 66.3-26.3 72-1.4 3.6-2.6 7-2.7 7.7-.1.7-.5 1.6-.9 1.9-.4.4-.7 1.6-.7 2.6s-.3 1.8-.7 1.8c-.5 0-.8-85.5-.7-190V-.1l-10 .3-10 .3v190.4c0 152.5-.2 189.8-1.2 187.5-.7-1.6-2.5-6.3-3.9-10.4-1.5-4.1-2.9-8.2-3.2-9-.3-.8-.7-2-.9-2.5-.1-.6-1.6-4.8-3.4-9.5-1.7-4.7-4-10.9-5.1-13.8-1-2.8-2.8-7.8-4-11-1.2-3.1-2.5-6.6-3.1-7.7-.5-1.2-1.1-3-1.3-4-.2-1.1-.4-2.1-.5-2.3-.2-.1-.3-.5-.5-1-.1-.4-.6-1.8-1.2-3.2-.6-1.4-2.1-5.4-3.3-9-1.3-3.6-2.7-6.9-3.1-7.4-.6-.7-12.6 2.6-15.4 4.3-.5.3-1.4.6-2 .6-.5 0-.9.7-.9 1.5.1 1.3 17.9 51.2 23.1 64.5.8 2.2 5 13.7 9.3 25.5 4.3 11.8 8.5 23.3 9.3 25.5 3.3 8.5 19.6 54.1 19.9 55.5.2.8-.2 1.4-.8 1.3-.6-.1-6-1.3-12-2.7-10.3-2.4-12.6-2.9-19.1-4.1-1.6-.3-3.5-.8-4.3-1-.8-.3-3.3-.7-5.5-1-2.2-.3-5.3-1-7-1.5-1.6-.5-4.6-1.1-6.5-1.4-1.9-.3-4.6-.7-6-1-2.4-.5-13.4-2.3-19.5-3.3-1.6-.2-4.2-.5-5.7-.6-1.6-.1-2.8-.4-2.8-.7 0-.3-1.5-.5-3.3-.6-3.1-.1-10.7-1-15.7-1.9-1.4-.3-4.7-.8-7.5-1.1-2.7-.3-6.1-.7-7.5-.9-1.4-.2-5.4-.6-9-1-3.6-.4-7.6-.9-9-1.1-2.2-.4-7.5-.8-24-1.8-4-.3-4.5-.5-4.4-2.7.1-1.3 1.3-5.4 2.7-9.2 1.3-3.7 2.2-6.7 1.8-6.7-.3 0-.1-.4.4-.8.6-.4 2.1-3.9 3.4-7.7 1.3-3.9 2.7-7.5 3.2-8 .4-.6 1-2.7 1.4-4.8.4-2 1.1-4 1.6-4.3.5-.3.7-1 .4-1.5-.4-.5-.2-.9.3-.9s.9-.6.9-1.3c.1-1.7.7-4.1 1.3-4.7.3-.3 1.3-3 2.4-6 1-3 2.3-6.6 2.9-8 .5-1.4 1.1-3.2 1.3-4 .2-.8 1-3 1.8-5 1.2-2.8 7.4-19.6 16.2-44 6.1-16.9 12.6-34.8 13.1-36 .3-.8.7-2 .9-2.7.1-.6 1.4-4.2 2.9-7.9 3.2-7.9 3.5-7.4-8.5-11.5l-7.5-2.6-1.7 4.1c-.9 2.3-3.3 8.8-5.3 14.6-2 5.8-4 11.4-4.5 12.5-.9 1.9-10.8 28.9-11.4 31-.2.5-.6 1.7-.9 2.5-.4.8-2.4 6.4-4.6 12.5-4.6 13-6 16.5-6.3 16.5-.2 0-.3-79.7-.3-177V-.1l-10 .3-10 .3v176.8c0 141.6-.2 176.4-1.2 175-.7-.9-1.3-2.4-1.3-3.3 0-.9-.3-2-.7-2.4-.4-.3-.8-1.2-.9-1.9-.1-.7-1.6-4.9-3.4-9.5-1.7-4.6-3.3-8.9-3.4-9.5-.3-1.3-1.4-4.2-2.6-7.2-.5-1.1-4.5-12.1-8.9-24.5-4.5-12.4-8.5-23.3-9.1-24.2-.5-1-1-2.6-1-3.5-.1-2.2-2.6-6.9-3.6-6.6-.4.1-1 .5-1.3 1-.3.4-3.9 1.9-7.9 3.2-4 1.4-7.5 2.7-7.7 3.1-.3.6 6.7 21.1 10.8 31.5.6 1.6 1.2 3.2 1.3 3.5 0 .3.3 1.2.7 2 .5 1.4 3.9 10.4 10.4 28.5 1.4 3.8 3.2 8.6 4 10.5.8 1.9 1.6 4.2 1.8 5 .2.8 2 6 4 11.5 3.5 9.6 6.5 17.9 15.5 42.5 6.2 17.2 8.1 22.3 9 24.5.5 1.1 1.8 4.5 2.9 7.6l2 5.6-4.7-.3c-11-.6-30.4-1.6-38.7-1.9-11.4-.5-75.7-.5-85 0-6.8.3-28.3 1.4-37.5 1.9-2.5.2-4.8.1-5.2-.1-.6-.3 1.3-6.1 4.3-12.8 2.7-6.2 6.7-18.4 6.2-18.9-.4-.3-.1-.6.5-.6.7 0 1.2-.5 1.2-1.2 0-1.1 24.3-68.6 27.3-75.8.6-1.4.9-2.9.8-3.4-.1-.4.2-1.3.7-2 .5-.6 1.9-4 3.1-7.6 1.2-3.6 2.6-7.4 3.1-8.5.5-1.1 2.3-6.1 4.1-11 1.7-5 4.9-13.9 7-19.8l3.9-10.8-2.3-.9c-11-4.4-15.6-5.7-16.6-4.7-.6.6-1.1 1.4-1.1 1.8 0 .4-.5 2-1.1 3.6-.6 1.5-1 2.9-1 3.1.1.1-.6 1.9-1.5 4-1.6 3.8-8 21.1-11.6 31.7-1.2 3.3-2.5 7.1-3.1 8.5-1.1 2.9-6.4 17.3-11.2 31-1.9 5.2-3.5 9.3-3.6 9-.1-.3-.2-79.9-.3-177L398.5.5l-10-.3-10-.3v177c0 97.4-.3 176.7-.6 176.3-.3-.4-3-7.2-5.8-15.2-2.9-8-5.6-15.4-6.1-16.5-1.5-3.5-12.1-32.9-12.5-34.7-.2-.9-1.1-3-1.9-4.7-.9-1.7-1.6-3.4-1.6-3.8 0-.5-1.4-4.7-3.1-9.4l-3.2-8.6-4.1 1.3c-7.5 2.4-13.1 4.5-13.9 5.3-.4.4-.3 1.9.2 3.2.6 1.3 3 8 5.5 14.9 2.4 6.9 5.4 14.9 6.5 17.7 1.1 2.9 1.8 5.3 1.5 5.3-.4 0-.2.6.4 1.2.5.7 2.4 5.3 4.1 10.3 1.7 4.9 3.4 9.7 3.8 10.5.3.8.7 1.9.9 2.5.2.5 2.6 7.1 5.4 14.5 2.8 7.4 5.2 14.2 5.4 15 .5 1.8 9.3 25.7 10.5 28.5.5 1.1 1.2 2.9 1.4 4 .3 1.1 1.7 5.1 3.2 9 1.4 3.8 2.8 7.4 2.9 8 .4 1.3 1.6 4.5 2.6 7 1.6 3.9 6.2 17 6.7 19.2.4 1.5.1 2.3-.8 2.4-.8 0-3 .2-4.9.4-1.9.1-7.1.5-11.5.9s-9.8.9-12 1.1c-2.2.3-6 .7-8.5.9-7.5.8-18.4 2.1-24 3.1-.8.1-4.2.6-7.5 1-3.2.4-6.8.9-8 1.1-1.1.2-3.8.6-6 .8-5.4.6-15 2.2-15 2.6 0 .1-1.6.3-3.5.5s-4.6.6-6 .9c-7.6 1.5-24.6 4.8-25.5 5-.5.1-2.3.5-4 .9-1.6.4-4.1.9-5.5 1.1-1.4.3-3.4.7-4.5 1-8.4 1.9-12.2 2.8-13.6 3.1-.9.2-3.4.8-5.5 1.4-2.1.6-3.9.9-4.1.8-.3-.3 12.6-36 22.3-62.2 2.5-6.6 4.7-12.7 4.9-13.5.2-.8 1.6-4.7 3-8.5 1.5-3.9 2.8-7.5 3-8 .1-.6.5-1.7.8-2.5.9-2.2 13.8-37.3 14.1-38.5.2-.6.6-1.7.9-2.5 1.3-3.1 5.1-13.5 5.2-14 0-.4 2.4-7.1 4.2-12 .3-.8.7-2 .9-2.5.1-.6 1-2.7 1.9-4.9.9-2.1 1.4-4 1.2-4.3-.6-.5-16.7-6.3-17.7-6.3-.4 0-1.4 1.7-2.3 3.7-2.3 5.5-7.8 20.5-8.2 22.3-.3 1.6-2.9 8.6-5 13.5-.7 1.6-2.2 5.7-3.3 9-2.8 8.4-16.2 44.8-16.5 45.1-.2.2-.3-85.3-.3-189.9V.5l-10-.3-10-.3v189.2zM502 457.5c16.2.3 32.7.8 36.5 1 26.9 1.8 33.7 2.3 40.5 3 3 .3 8 .8 11 1 3 .3 7.3.7 9.5 1 2.2.2 6.3.7 9 1 2.8.3 6.1.7 7.5 1 1.4.3 5 .7 8 1 3 .3 6.6.8 8 1.1 1.4.3 4.2.7 6.2.9 2.1.3 5 .7 6.5 1 1.6.3 4.8.8 7.3 1.1 2.5.3 5.4.8 6.5 1 1.1.2 3.4.7 5 .9 1.7.3 7.5 1.4 13 2.5 5.5 1 11.6 2.2 13.5 2.5 1.9.3 5.5 1.1 8 1.7 2.5.6 5.4 1.2 6.5 1.3 1.1.2 5.8 1.3 10.5 2.4 4.7 1.2 9.4 2.3 10.5 2.6 1.1.2 4.5 1.1 7.7 1.9 3.1.8 6.7 1.8 8 2 1.2.3 4.8 1.2 7.8 2.1 3 .9 6.4 1.9 7.5 2.2 1.1.3 5.8 1.7 10.5 3.1 4.7 1.4 8.8 2.7 9.3 2.8.4.1.9.3 1.2.4.3.1 1 .4 1.5.5.6.1 1.2.3 1.5.4.3 0 .8.2 1.3.2.9.2 16.2 5.5 22.7 7.9 2.8 1 8.8 3.3 13.5 5 22.7 8.4 48.5 20.2 71 32.3 9.8 5.2 27 15.5 29.3 17.5 1.4 1.2 1.7 3.2 1.7 11 0 9.3 0 9.4-2.2 8.9-1.3-.3-9.9-2-19.3-3.7-9.3-1.8-17.7-3.5-18.5-3.8-.8-.3-1.9-.4-2.3-.3-.5.1-4.7-.5-9.5-1.4-4.8-.8-10.4-1.7-12.6-2.1-2.1-.3-4.6-.7-5.5-.9-.9-.1-5.2-.8-9.6-1.5-4.4-.6-9.1-1.3-10.5-1.6-1.4-.2-5-.7-8-.9-3-.3-6.2-.7-7-1-1.4-.3-8.6-1.3-15-2-1.4-.2-4.3-.5-6.5-.9-2.2-.3-6-.8-8.5-1-2.5-.3-6.5-.8-9-1.1-2.5-.4-6.3-.9-8.5-1.1-2.2-.2-6.5-.6-9.5-.8-7.1-.7-14.3-1.4-20-2.1-4.4-.5-11.2-1.1-24-2-3.6-.3-8.1-.7-10-1-1.9-.2-7.1-.7-11.5-1-4.4-.3-10.5-.8-13.5-1.1-6.1-.5-17.2-1.2-30-1.9-4.7-.2-12.5-.7-17.5-1-64.5-4.2-189.7-5.1-269.5-1.9-28.4 1.1-62.5 2.8-77.5 4-9.5.7-17.7 1.3-26.5 1.9-12.4.9-18.5 1.4-22.4 1.9-2.2.3-7.6.8-12 1.1-4.5.4-9.7.8-11.6 1-1.9.2-6.4.6-10 1-3.6.3-8.3.8-10.5 1.1-2.2.3-6.2.7-9 .9-2.7.3-6.6.7-8.5 1-1.9.2-9.3 1.2-16.5 2-7.1.9-14 1.8-15.1 2-1.2.2-4.8.6-8 1-3.3.4-7 .9-8.4 1.1-1.4.2-4.3.7-6.5.9-3.6.5-12.8 1.9-19.5 3-1.4.2-6.8 1.1-12 1.9-5.2.9-10.8 1.8-12.5 2.1-2.7.5-14.7 2.6-21.5 3.9-1.4.2-7.1 1.4-12.7 2.5-5.5 1.2-10.4 2.1-10.7 2.1-.3 0-.6-4.2-.6-9.3 0-7.7.3-9.7 1.8-10.9 6.3-5.5 47.8-27.8 68.2-36.7 3-1.3 8-3.5 11-4.9 3-1.3 6-2.5 6.5-2.6.6-.1 2.1-.8 3.5-1.6 1.4-.7 2.5-1.2 2.5-1.1 0 .3 3.3-.9 8.4-3 2.4-1.1 4.8-1.9 5.3-1.9.6 0 2.4-.6 4.1-1.4 13.4-6.1 85.6-26.9 104.7-30.1 1.9-.3 4.3-.8 5.2-1.1.9-.3 2.7-.7 4-.9 1.3-.3 4.6-.9 7.3-1.5 2.8-.5 6.6-1.2 8.5-1.6 1.9-.3 4-.7 4.5-.8 1.5-.4 7.6-1.5 10.9-2.1 6-.9 12.2-1.8 14.1-2.1 1.1-.1 2-.3 2-.4 0-.2 1.1-.4 2.5-.6 1.4-.1 4.1-.5 6-.7 1.9-.3 8.7-1.2 15-2 6.3-.9 13.8-1.9 16.5-2.2 2.8-.4 6.4-.8 8-1 7.5-1 28.5-2.8 45.3-3.9 19.8-1.4 26-1.7 48.7-2.2 13.2-.3 24.1-.7 24.3-.9.2-.2 1.1-.1 2 .1.9.1 15 .6 31.2.9zM527.7 566l9.3.3-.6 3.1c-.3 1.7-1 5.1-1.5 7.6-.6 2.5-1.3 6.3-1.6 8.5-.2 2.1-.7 4.3-.9 4.7-.3.4-.7 2.4-1 4.5-.9 5.6-1.2 7.8-1.3 8-.4 1.2-1.4 6.5-6.1 31.3-3.4 17.9-3.7 19.6-4.4 23-.3 1.3-.8 4.2-1.1 6.5-.3 2.2-.8 4.8-1.1 5.7-.7 2.4-1.3 5.7-2 10.8-.3 2.5-.8 4.8-1.1 5.3-.2.4-.6 1.7-.8 3-.2 1.2-.6 3.5-.9 5.2-.2 1.6-.9 5.5-1.6 8.5-.6 3-1.3 7-1.6 8.9-.3 1.8-.8 4.2-1 5.2-.2 1.1-.6 2.9-.9 4.1-.3 1.3-.7 3.6-.9 5.3-.2 1.6-.7 4.1-1 5.5-.3 1.4-.8 3.6-1 5-.3 1.4-.7 3.6-1 5-.3 1.3-.8 4.2-1.2 6.5-.7 4.6-1.2 7-1.4 7-.2 0-.5 1.8-1.4 7.5-.7 4.3-.8 4.6-5.7 30-2.2 11.3-4.2 22-4.5 23.9-.3 1.8-.8 4.2-1 5.2-.2 1.1-.6 2.9-.9 4.1-.3 1.3-.8 4.3-1.1 6.8-.3 2.5-.8 4.8-1 5.1-.2.4-.6 2.4-1 4.4-.3 2.1-.8 4.7-1 5.9-.3 1.1-.9 4.3-1.4 7.1-1.4 7.6-1.9 9.8-2.4 12.1-.2 1.2-.7 3.9-1 6-.3 2.2-.9 5.2-1.3 6.9-.6 3-1.1 5.9-1.2 8.2-.1.7-.6 1.3-1.2 1.3-.7 0-.9-1-.7-2.5.3-1.4.2-2.5-.2-2.5s-.7-.6-.7-1.3c0-.6-.4-2.6-.7-4.2-.4-1.7-1.1-5.3-1.6-8-.5-2.8-1.2-6.4-1.5-8-.3-1.7-1.5-8-2.7-14-1.1-6.1-2.2-11.9-2.4-13-.2-1.1-1.1-5.8-2-10.5-.9-4.7-1.8-9.4-2-10.5-.7-3.6-1.3-6.4-2.4-12.3-.5-3.1-1.2-6.8-1.5-8.2-.3-1.4-1.2-6.3-2.1-11-.9-4.7-1.8-9.4-2-10.5-.3-1.1-.6-3.2-.9-4.7-.2-1.5-.6-3.5-.9-4.5-.3-1-.8-3.6-1.1-5.8-.4-2.2-.8-4.9-1-6-.2-1.1-.7-3.4-1-5-.3-1.7-1.2-6.2-2-10-.8-3.9-1.6-8.1-1.8-9.5-1.4-7.6-2.8-14.8-3.2-17-.3-1.4-.8-4.1-1.1-6-.3-1.9-.7-4.2-.9-5-.3-.8-.7-3.3-1.1-5.5-.3-2.2-.7-4.2-.9-4.5-.2-.3-.6-2.4-.9-4.6-.6-3.7-.9-5.1-2-10.3-.2-1-.7-3.4-1-5.2-.3-1.9-2.1-11.5-4-21.4-1.9-9.9-3.8-19.6-4.1-21.5-.3-1.9-1-5.4-1.6-7.7-.5-2.4-.8-4.6-.7-5 0-.5-.2-1.5-.5-2.3-.3-.8-.9-3.3-1.2-5.5-.6-4-1-6.2-1.8-10-.3-1.1-1.4-7.2-2.6-13.5-1.2-6.3-2.3-12.5-2.6-13.6-.5-2-.1-2.2 8.2-2.3 4.8-.1 8.8-.3 8.9-.4.3-.3 85.9 0 97.1.3zm-134.2 4.3c.4 1.8.8 3.9 1 4.7.4 2.7 1.5 8.4 2 11 .3 1.4.9 5 1.5 8s1.2 6.6 1.5 8c.3 1.4.8 4 1.1 5.9.3 1.8.7 4.1.9 5 .2.9 1.9 10.1 3.9 20.6 2 10.4 4.1 21 4.6 23.5 1.3 5.8 2 10.1 3.4 18.5.2 1.1 1.5 8.1 2.9 15.5 3.5 18 3.7 19.1 4.2 21.7.3 1.3.7 3.5 1 5 .2 1.6.7 3.9 1 5.3.5 2.6 1.1 6 2 10.7.3 1.6.8 3.9 1.1 5.3.3 1.4 1 5 1.5 8 .6 3 1.3 6.8 1.6 8.5.4 1.6.7 4 .7 5.2.1 1.3.4 2.3.7 2.3.3 0 .6.6.6 1.2 0 1.3.8 6 1.9 11.3.3 1.6.7 3.9.9 5 .1 1.1 1.4 8.1 2.8 15.5 1.5 7.4 2.9 14.6 3.1 16 .3 1.4 1 4.7 1.6 7.5.6 2.7 1.2 6.1 1.4 7.5.2 1.4 1.3 7.4 2.5 13.5 2.3 11.4 2.6 12.7 3.5 18.5.3 1.9.8 4.6 1.1 6 .3 1.4.8 4.1 1.1 6 .8 4.6 1.2 6.5 1.4 6.5.1 0 .4 2 .6 4.5l.5 4.5-2.6-5.2c-1.4-2.9-3-5.5-3.5-5.8-.6-.3-1-1.5-1-2.5s-.3-2-.8-2.2c-1-.4-10.2-16.5-10.2-17.8 0-.5-.4-1-.8-1-.5 0-1.4-1.6-2.2-3.5-.8-1.9-1.8-3.5-2.4-3.5-.5 0-.7-.3-.4-.6.4-.3-.5-2.2-1.8-4.1-1.3-2-2.4-4.2-2.4-4.9 0-.8-.4-1.4-.9-1.4s-1.2-.8-1.5-1.8c-.3-.9-1.2-2.6-1.9-3.7-.6-1.1-3.2-5.6-5.6-10-4.4-8-6.3-11.3-10.1-18-1.1-1.9-3-5.2-4.1-7.3-1.2-2-4.9-8.7-8.4-14.7-3.4-6.1-7.3-13-8.7-15.5-1.4-2.5-5.6-9.9-9.3-16.5-3.8-6.6-8.2-14.5-9.8-17.5-1.6-3-3.3-6-3.7-6.5-.9-1.2-5.5-9.4-8.4-15-1.2-2.2-2.3-4.2-2.6-4.5-.3-.3-1-1.4-1.6-2.5-2.2-4.1-7.8-14.1-9.4-17-1-1.7-4.5-8-7.9-14-3.4-6.1-6.6-11.7-7.1-12.5-.5-.8-1.8-3.1-2.8-5-1.1-1.9-3.8-6.7-6-10.7-5.2-9-7.7-13.5-11.3-19.8-1.5-2.8-8.4-14.9-15.2-27-6.8-12.1-12.4-22.1-12.3-22.2.1-.2 16-1.3 25.6-1.8 17.2-1 32.1-1.7 36.8-1.8 2.8-.1 5.2-.5 5.2-1 0-.4.5-.5 1.2-.1.7.5 2.6.7 4.3.6 1.6-.1 11.3-.4 21.5-.8 10.2-.3 18.6-.7 18.8-.9 1.1-1 3.1 1 3.7 3.8zM599 568c0 .3 3.7.5 8.3.6 4.5.1 13.6.4 20.2.8s16.1.9 21 1.2c5 .2 11.5.7 14.5 1 3 .2 6.5.4 7.8.4 1.2 0 2.2.5 2.2 1 0 .6-3.1 6.5-7 13.1-3.8 6.7-7 12.3-7 12.5 0 .3-1 2.1-2.3 4.2-1.3 2-3.7 6.2-5.4 9.2-1.6 3-5.4 9.8-8.4 15-6.7 11.9-8.3 14.6-10.6 19-1.1 1.9-4.8 8.4-8.3 14.5-3.5 6-7.1 12.7-8.2 14.7-1 2-2.2 4-2.8 4.3-.5.3-1 1.5-1 2.5s-.4 2-.8 2.2c-.7.2-9.2 15-18.6 32.3-.6 1.1-1.3 2.2-1.6 2.5-.3.3-1.5 2.3-2.7 4.5-2.2 4.2-4.8 8.9-8.4 15.2-3.6 6.3-15 26.5-17.6 31.3-1.4 2.5-3.3 5.8-4.3 7.5-1 1.6-3 5.2-4.5 8-4.3 7.7-7.5 13.5-10.5 18.4-1.4 2.6-2.9 5.3-3.3 6.1-.4.8-1.5 2.8-2.5 4.5-1 1.6-3.8 6.6-6.2 11-2.4 4.4-5.1 9.1-6 10.5-.9 1.4-3.5 5.9-5.6 10-2.1 4.1-4.2 7.7-4.5 8-.3.3-1.6 2.5-3 5-1.3 2.5-2.7 4.7-3.2 4.8-.4.2-.5.7-.2 1.2s0 1.4-.7 2.2c-1.3 1.3-2.8 3.8-8.3 14-1.4 2.7-2.7 4.8-2.8 4.8-.2 0 .2-2.8.9-6.3 2.2-10.8 2.5-12.1 3-15.7.2-1.9.7-4.2.9-5 .2-.8.7-3.1 1-5 .3-1.9.8-4.2 1.1-5.1.2-.9.7-3.2.9-5 .3-1.9.7-4.1.8-4.9 1.3-5.9 2.2-10.2 3.2-16.5.4-2.8 1-5.4 1.3-5.9.3-.5.7-2.7.9-4.9.2-2.2.8-4.6 1.3-5.2.5-.7.7-1.4.4-1.7-.3-.3.4-5.2 1.6-10.9 2-10 2.5-12.8 3.6-19.4.3-1.7.7-3.9 1.1-5 .3-1.1.7-3.1.9-4.5.1-1.4.5-3.5.7-4.6.3-1.2.8-3.7 1.1-5.5.3-1.9 1.5-8.1 2.6-13.9 2.8-13.7 2.6-13 3.4-17 .3-1.9.8-4.6 1.1-6 .3-1.4 1-5.2 1.5-8.5.6-3.3 1.7-9.2 2.5-13 .8-3.9 1.6-8.4 1.9-10 .3-1.7.8-3.9 1-5 .2-1.1.7-4 1.2-6.5.4-2.5.8-4.7.9-5 .3-.9 1.5-7.4 1.9-10 .3-1.4.5-2.5.6-2.5.1 0 .3-1.1.5-2.5s1.3-7.5 2.5-13.5c1.2-6.1 2.3-11.9 2.5-13 .6-4.1 1.6-9.1 2.1-10.8.3-1 .7-3 .9-4.5.3-2.2 3.2-18.1 6-32.2 1-5 2.5-13.4 2.5-13.7 0-.2 9.4-.3 21-.1 11.5.2 21 .5 21 .8z"/></svg>